<mxfile host="app.diagrams.net" modified="2023-06-08T14:50:25.872Z" agent="Mozilla/5.0 (Windows NT 10.0; Win64; x64) AppleWebKit/537.36 (KHTML, like Gecko) Chrome/114.0.0.0 Safari/537.36" etag="vA3xZHBIU5YHtSLPBS9Y" version="21.3.7" type="github">
  <diagram id="C5RBs43oDa-KdzZeNtuy" name="Page-1">
    <mxGraphModel dx="3827" dy="6222" grid="1" gridSize="10" guides="1" tooltips="1" connect="1" arrows="1" fold="1" page="1" pageScale="1" pageWidth="827" pageHeight="1169" math="0" shadow="0">
      <root>
        <mxCell id="WIyWlLk6GJQsqaUBKTNV-0" />
        <mxCell id="WIyWlLk6GJQsqaUBKTNV-1" parent="WIyWlLk6GJQsqaUBKTNV-0" />
        <mxCell id="JzHmCHcc4jUydCR1_Gb7-157" style="edgeStyle=orthogonalEdgeStyle;rounded=0;orthogonalLoop=1;jettySize=auto;html=1;entryX=0;entryY=0.5;entryDx=0;entryDy=0;endArrow=diamond;endFill=1;endSize=12;" parent="WIyWlLk6GJQsqaUBKTNV-1" source="JzHmCHcc4jUydCR1_Gb7-0" target="JzHmCHcc4jUydCR1_Gb7-153" edge="1">
          <mxGeometry relative="1" as="geometry">
            <Array as="points">
              <mxPoint x="-250" y="-289" />
              <mxPoint x="-250" y="-289" />
            </Array>
          </mxGeometry>
        </mxCell>
        <mxCell id="JzHmCHcc4jUydCR1_Gb7-0" value="SaveManager&lt;br style=&quot;font-size: 15px;&quot;&gt;&amp;lt;&amp;lt;MonoBehaviour&amp;gt;&amp;gt;Script" style="swimlane;fontStyle=1;align=center;verticalAlign=top;childLayout=stackLayout;horizontal=1;startSize=50;horizontalStack=0;resizeParent=1;resizeParentMax=0;resizeLast=0;collapsible=1;marginBottom=0;whiteSpace=wrap;html=1;fontSize=15;fillColor=#fff2cc;strokeColor=#d6b656;" parent="WIyWlLk6GJQsqaUBKTNV-1" vertex="1">
          <mxGeometry x="-480" y="-461" width="220" height="344" as="geometry">
            <mxRectangle x="30" y="30" width="230" height="50" as="alternateBounds" />
          </mxGeometry>
        </mxCell>
        <mxCell id="JzHmCHcc4jUydCR1_Gb7-151" value="+ displayName: string" style="text;strokeColor=none;fillColor=none;align=left;verticalAlign=top;spacingLeft=4;spacingRight=4;overflow=hidden;rotatable=0;points=[[0,0.5],[1,0.5]];portConstraint=eastwest;whiteSpace=wrap;html=1;fontSize=15;" parent="JzHmCHcc4jUydCR1_Gb7-0" vertex="1">
          <mxGeometry y="50" width="220" height="26" as="geometry" />
        </mxCell>
        <mxCell id="JzHmCHcc4jUydCR1_Gb7-149" value="+ currentHunter: int" style="text;strokeColor=none;fillColor=none;align=left;verticalAlign=top;spacingLeft=4;spacingRight=4;overflow=hidden;rotatable=0;points=[[0,0.5],[1,0.5]];portConstraint=eastwest;whiteSpace=wrap;html=1;fontSize=15;" parent="JzHmCHcc4jUydCR1_Gb7-0" vertex="1">
          <mxGeometry y="76" width="220" height="26" as="geometry" />
        </mxCell>
        <mxCell id="JzHmCHcc4jUydCR1_Gb7-148" value="+ currentMap: int" style="text;strokeColor=none;fillColor=none;align=left;verticalAlign=top;spacingLeft=4;spacingRight=4;overflow=hidden;rotatable=0;points=[[0,0.5],[1,0.5]];portConstraint=eastwest;whiteSpace=wrap;html=1;fontSize=15;" parent="JzHmCHcc4jUydCR1_Gb7-0" vertex="1">
          <mxGeometry y="102" width="220" height="26" as="geometry" />
        </mxCell>
        <mxCell id="JzHmCHcc4jUydCR1_Gb7-6" value="+ coins: int" style="text;strokeColor=none;fillColor=none;align=left;verticalAlign=top;spacingLeft=4;spacingRight=4;overflow=hidden;rotatable=0;points=[[0,0.5],[1,0.5]];portConstraint=eastwest;whiteSpace=wrap;html=1;fontSize=15;" parent="JzHmCHcc4jUydCR1_Gb7-0" vertex="1">
          <mxGeometry y="128" width="220" height="26" as="geometry" />
        </mxCell>
        <mxCell id="JzHmCHcc4jUydCR1_Gb7-7" value="+ gems: int" style="text;strokeColor=none;fillColor=none;align=left;verticalAlign=top;spacingLeft=4;spacingRight=4;overflow=hidden;rotatable=0;points=[[0,0.5],[1,0.5]];portConstraint=eastwest;whiteSpace=wrap;html=1;fontSize=15;" parent="JzHmCHcc4jUydCR1_Gb7-0" vertex="1">
          <mxGeometry y="154" width="220" height="26" as="geometry" />
        </mxCell>
        <mxCell id="JzHmCHcc4jUydCR1_Gb7-8" value="+ thunders: int" style="text;strokeColor=none;fillColor=none;align=left;verticalAlign=top;spacingLeft=4;spacingRight=4;overflow=hidden;rotatable=0;points=[[0,0.5],[1,0.5]];portConstraint=eastwest;whiteSpace=wrap;html=1;fontSize=15;" parent="JzHmCHcc4jUydCR1_Gb7-0" vertex="1">
          <mxGeometry y="180" width="220" height="26" as="geometry" />
        </mxCell>
        <mxCell id="JzHmCHcc4jUydCR1_Gb7-9" value="+ ownedHunters: int" style="text;strokeColor=none;fillColor=none;align=left;verticalAlign=top;spacingLeft=4;spacingRight=4;overflow=hidden;rotatable=0;points=[[0,0.5],[1,0.5]];portConstraint=eastwest;whiteSpace=wrap;html=1;fontSize=15;" parent="JzHmCHcc4jUydCR1_Gb7-0" vertex="1">
          <mxGeometry y="206" width="220" height="26" as="geometry" />
        </mxCell>
        <mxCell id="JzHmCHcc4jUydCR1_Gb7-11" value="+ matchsPlayed: int" style="text;strokeColor=none;fillColor=none;align=left;verticalAlign=top;spacingLeft=4;spacingRight=4;overflow=hidden;rotatable=0;points=[[0,0.5],[1,0.5]];portConstraint=eastwest;whiteSpace=wrap;html=1;fontSize=15;" parent="JzHmCHcc4jUydCR1_Gb7-0" vertex="1">
          <mxGeometry y="232" width="220" height="26" as="geometry" />
        </mxCell>
        <mxCell id="JzHmCHcc4jUydCR1_Gb7-12" value="+ ranked: int" style="text;strokeColor=none;fillColor=none;align=left;verticalAlign=top;spacingLeft=4;spacingRight=4;overflow=hidden;rotatable=0;points=[[0,0.5],[1,0.5]];portConstraint=eastwest;whiteSpace=wrap;html=1;fontSize=15;" parent="JzHmCHcc4jUydCR1_Gb7-0" vertex="1">
          <mxGeometry y="258" width="220" height="26" as="geometry" />
        </mxCell>
        <mxCell id="JzHmCHcc4jUydCR1_Gb7-2" value="" style="line;strokeWidth=1;fillColor=none;align=left;verticalAlign=middle;spacingTop=-1;spacingLeft=3;spacingRight=3;rotatable=0;labelPosition=right;points=[];portConstraint=eastwest;strokeColor=inherit;" parent="JzHmCHcc4jUydCR1_Gb7-0" vertex="1">
          <mxGeometry y="284" width="220" height="8" as="geometry" />
        </mxCell>
        <mxCell id="JzHmCHcc4jUydCR1_Gb7-144" value="+ Save()" style="text;strokeColor=none;fillColor=none;align=left;verticalAlign=top;spacingLeft=4;spacingRight=4;overflow=hidden;rotatable=0;points=[[0,0.5],[1,0.5]];portConstraint=eastwest;whiteSpace=wrap;html=1;fontSize=15;" parent="JzHmCHcc4jUydCR1_Gb7-0" vertex="1">
          <mxGeometry y="292" width="220" height="26" as="geometry" />
        </mxCell>
        <mxCell id="JzHmCHcc4jUydCR1_Gb7-145" value="+ Load()" style="text;strokeColor=none;fillColor=none;align=left;verticalAlign=top;spacingLeft=4;spacingRight=4;overflow=hidden;rotatable=0;points=[[0,0.5],[1,0.5]];portConstraint=eastwest;whiteSpace=wrap;html=1;fontSize=15;" parent="JzHmCHcc4jUydCR1_Gb7-0" vertex="1">
          <mxGeometry y="318" width="220" height="26" as="geometry" />
        </mxCell>
        <mxCell id="JzHmCHcc4jUydCR1_Gb7-21" value="Hunter&lt;br style=&quot;font-size: 15px;&quot;&gt;&amp;lt;&amp;lt;GameObject&amp;gt;&amp;gt;" style="swimlane;fontStyle=1;align=center;verticalAlign=top;childLayout=stackLayout;horizontal=1;startSize=50;horizontalStack=0;resizeParent=1;resizeParentMax=0;resizeLast=0;collapsible=1;marginBottom=0;whiteSpace=wrap;html=1;fontSize=15;fillColor=#d5e8d4;strokeColor=#82b366;" parent="WIyWlLk6GJQsqaUBKTNV-1" vertex="1">
          <mxGeometry x="120" y="-352" width="220" height="110" as="geometry">
            <mxRectangle x="400" y="30" width="160" height="50" as="alternateBounds" />
          </mxGeometry>
        </mxCell>
        <mxCell id="JzHmCHcc4jUydCR1_Gb7-22" value="- tag: string" style="text;strokeColor=none;fillColor=none;align=left;verticalAlign=top;spacingLeft=4;spacingRight=4;overflow=hidden;rotatable=0;points=[[0,0.5],[1,0.5]];portConstraint=eastwest;whiteSpace=wrap;html=1;fontSize=15;" parent="JzHmCHcc4jUydCR1_Gb7-21" vertex="1">
          <mxGeometry y="50" width="220" height="26" as="geometry" />
        </mxCell>
        <mxCell id="JzHmCHcc4jUydCR1_Gb7-23" value="- active: bool" style="text;strokeColor=none;fillColor=none;align=left;verticalAlign=top;spacingLeft=4;spacingRight=4;overflow=hidden;rotatable=0;points=[[0,0.5],[1,0.5]];portConstraint=eastwest;whiteSpace=wrap;html=1;fontSize=15;" parent="JzHmCHcc4jUydCR1_Gb7-21" vertex="1">
          <mxGeometry y="76" width="220" height="26" as="geometry" />
        </mxCell>
        <mxCell id="JzHmCHcc4jUydCR1_Gb7-30" value="" style="line;strokeWidth=1;fillColor=none;align=left;verticalAlign=middle;spacingTop=-1;spacingLeft=3;spacingRight=3;rotatable=0;labelPosition=right;points=[];portConstraint=eastwest;strokeColor=inherit;" parent="JzHmCHcc4jUydCR1_Gb7-21" vertex="1">
          <mxGeometry y="102" width="220" height="8" as="geometry" />
        </mxCell>
        <mxCell id="JzHmCHcc4jUydCR1_Gb7-56" style="edgeStyle=orthogonalEdgeStyle;rounded=0;orthogonalLoop=1;jettySize=auto;html=1;entryX=1;entryY=0.5;entryDx=0;entryDy=0;endArrow=block;endFill=0;endSize=12;startSize=12;" parent="WIyWlLk6GJQsqaUBKTNV-1" source="JzHmCHcc4jUydCR1_Gb7-33" target="JzHmCHcc4jUydCR1_Gb7-22" edge="1">
          <mxGeometry relative="1" as="geometry">
            <Array as="points">
              <mxPoint x="510" y="-289" />
              <mxPoint x="510" y="-289" />
            </Array>
          </mxGeometry>
        </mxCell>
        <mxCell id="JzHmCHcc4jUydCR1_Gb7-541" style="edgeStyle=orthogonalEdgeStyle;rounded=0;orthogonalLoop=1;jettySize=auto;html=1;endArrow=diamond;endFill=0;endSize=12;" parent="WIyWlLk6GJQsqaUBKTNV-1" source="JzHmCHcc4jUydCR1_Gb7-33" target="JzHmCHcc4jUydCR1_Gb7-77" edge="1">
          <mxGeometry relative="1" as="geometry">
            <Array as="points">
              <mxPoint x="970" y="-297" />
              <mxPoint x="970" y="-10" />
            </Array>
          </mxGeometry>
        </mxCell>
        <mxCell id="JzHmCHcc4jUydCR1_Gb7-33" value="Player" style="swimlane;fontStyle=1;align=center;verticalAlign=middle;childLayout=stackLayout;horizontal=1;startSize=36;horizontalStack=0;resizeParent=1;resizeParentMax=0;resizeLast=0;collapsible=1;marginBottom=0;whiteSpace=wrap;html=1;fontSize=15;fillColor=#f5f5f5;strokeColor=#666666;fontColor=#333333;" parent="WIyWlLk6GJQsqaUBKTNV-1" vertex="1">
          <mxGeometry x="480" y="-326" width="220" height="44" as="geometry">
            <mxRectangle x="800" y="12" width="160" height="50" as="alternateBounds" />
          </mxGeometry>
        </mxCell>
        <mxCell id="JzHmCHcc4jUydCR1_Gb7-40" value="" style="line;strokeWidth=1;fillColor=none;align=left;verticalAlign=middle;spacingTop=-1;spacingLeft=3;spacingRight=3;rotatable=0;labelPosition=right;points=[];portConstraint=eastwest;strokeColor=inherit;" parent="JzHmCHcc4jUydCR1_Gb7-33" vertex="1">
          <mxGeometry y="36" width="220" height="8" as="geometry" />
        </mxCell>
        <mxCell id="JzHmCHcc4jUydCR1_Gb7-55" style="edgeStyle=orthogonalEdgeStyle;rounded=0;orthogonalLoop=1;jettySize=auto;html=1;entryX=0.5;entryY=1;entryDx=0;entryDy=0;endArrow=diamond;endFill=1;endSize=11;" parent="WIyWlLk6GJQsqaUBKTNV-1" source="JzHmCHcc4jUydCR1_Gb7-47" target="JzHmCHcc4jUydCR1_Gb7-21" edge="1">
          <mxGeometry relative="1" as="geometry" />
        </mxCell>
        <mxCell id="JzHmCHcc4jUydCR1_Gb7-47" value="CharacterSelection&lt;br style=&quot;font-size: 15px;&quot;&gt;&amp;lt;&amp;lt;MonoBehaviour&amp;gt;&amp;gt;Script" style="swimlane;fontStyle=1;align=center;verticalAlign=top;childLayout=stackLayout;horizontal=1;startSize=50;horizontalStack=0;resizeParent=1;resizeParentMax=0;resizeLast=0;collapsible=1;marginBottom=0;whiteSpace=wrap;html=1;fontSize=15;fillColor=#fff2cc;strokeColor=#d6b656;" parent="WIyWlLk6GJQsqaUBKTNV-1" vertex="1">
          <mxGeometry x="120" y="-142" width="220" height="162" as="geometry">
            <mxRectangle x="400" y="240" width="230" height="50" as="alternateBounds" />
          </mxGeometry>
        </mxCell>
        <mxCell id="JzHmCHcc4jUydCR1_Gb7-49" value="- price: int" style="text;strokeColor=none;fillColor=none;align=left;verticalAlign=top;spacingLeft=4;spacingRight=4;overflow=hidden;rotatable=0;points=[[0,0.5],[1,0.5]];portConstraint=eastwest;whiteSpace=wrap;html=1;fontSize=15;" parent="JzHmCHcc4jUydCR1_Gb7-47" vertex="1">
          <mxGeometry y="50" width="220" height="26" as="geometry" />
        </mxCell>
        <mxCell id="JzHmCHcc4jUydCR1_Gb7-52" value="- health: int" style="text;strokeColor=none;fillColor=none;align=left;verticalAlign=top;spacingLeft=4;spacingRight=4;overflow=hidden;rotatable=0;points=[[0,0.5],[1,0.5]];portConstraint=eastwest;whiteSpace=wrap;html=1;fontSize=15;" parent="JzHmCHcc4jUydCR1_Gb7-47" vertex="1">
          <mxGeometry y="76" width="220" height="26" as="geometry" />
        </mxCell>
        <mxCell id="JzHmCHcc4jUydCR1_Gb7-53" value="- range: int" style="text;strokeColor=none;fillColor=none;align=left;verticalAlign=top;spacingLeft=4;spacingRight=4;overflow=hidden;rotatable=0;points=[[0,0.5],[1,0.5]];portConstraint=eastwest;whiteSpace=wrap;html=1;fontSize=15;" parent="JzHmCHcc4jUydCR1_Gb7-47" vertex="1">
          <mxGeometry y="102" width="220" height="26" as="geometry" />
        </mxCell>
        <mxCell id="JzHmCHcc4jUydCR1_Gb7-54" value="- damage: int" style="text;strokeColor=none;fillColor=none;align=left;verticalAlign=top;spacingLeft=4;spacingRight=4;overflow=hidden;rotatable=0;points=[[0,0.5],[1,0.5]];portConstraint=eastwest;whiteSpace=wrap;html=1;fontSize=15;" parent="JzHmCHcc4jUydCR1_Gb7-47" vertex="1">
          <mxGeometry y="128" width="220" height="26" as="geometry" />
        </mxCell>
        <mxCell id="JzHmCHcc4jUydCR1_Gb7-50" value="" style="line;strokeWidth=1;fillColor=none;align=left;verticalAlign=middle;spacingTop=-1;spacingLeft=3;spacingRight=3;rotatable=0;labelPosition=right;points=[];portConstraint=eastwest;strokeColor=inherit;" parent="JzHmCHcc4jUydCR1_Gb7-47" vertex="1">
          <mxGeometry y="154" width="220" height="8" as="geometry" />
        </mxCell>
        <mxCell id="h68TDxjQolyVrIVYv69o-429" style="edgeStyle=orthogonalEdgeStyle;rounded=0;orthogonalLoop=1;jettySize=auto;html=1;endArrow=none;endFill=0;jumpStyle=arc;jumpSize=11;" edge="1" parent="WIyWlLk6GJQsqaUBKTNV-1" source="JzHmCHcc4jUydCR1_Gb7-63" target="JzHmCHcc4jUydCR1_Gb7-33">
          <mxGeometry relative="1" as="geometry" />
        </mxCell>
        <mxCell id="h68TDxjQolyVrIVYv69o-430" value="&lt;font style=&quot;font-size: 17px;&quot;&gt;Follow&lt;/font&gt;" style="edgeLabel;html=1;align=center;verticalAlign=middle;resizable=0;points=[];" vertex="1" connectable="0" parent="h68TDxjQolyVrIVYv69o-429">
          <mxGeometry x="0.0682" y="1" relative="1" as="geometry">
            <mxPoint as="offset" />
          </mxGeometry>
        </mxCell>
        <mxCell id="JzHmCHcc4jUydCR1_Gb7-63" value="Camera&lt;br style=&quot;font-size: 15px;&quot;&gt;&amp;lt;&amp;lt;GameObject&amp;gt;&amp;gt;" style="swimlane;fontStyle=1;align=center;verticalAlign=top;childLayout=stackLayout;horizontal=1;startSize=50;horizontalStack=0;resizeParent=1;resizeParentMax=0;resizeLast=0;collapsible=1;marginBottom=0;whiteSpace=wrap;html=1;fontSize=15;fillColor=#d5e8d4;strokeColor=#82b366;" parent="WIyWlLk6GJQsqaUBKTNV-1" vertex="1">
          <mxGeometry x="650" y="-52" width="220" height="110" as="geometry" />
        </mxCell>
        <mxCell id="JzHmCHcc4jUydCR1_Gb7-64" value="- tag: string" style="text;strokeColor=none;fillColor=none;align=left;verticalAlign=top;spacingLeft=4;spacingRight=4;overflow=hidden;rotatable=0;points=[[0,0.5],[1,0.5]];portConstraint=eastwest;whiteSpace=wrap;html=1;fontSize=15;" parent="JzHmCHcc4jUydCR1_Gb7-63" vertex="1">
          <mxGeometry y="50" width="220" height="26" as="geometry" />
        </mxCell>
        <mxCell id="JzHmCHcc4jUydCR1_Gb7-65" value="- active: bool" style="text;strokeColor=none;fillColor=none;align=left;verticalAlign=top;spacingLeft=4;spacingRight=4;overflow=hidden;rotatable=0;points=[[0,0.5],[1,0.5]];portConstraint=eastwest;whiteSpace=wrap;html=1;fontSize=15;" parent="JzHmCHcc4jUydCR1_Gb7-63" vertex="1">
          <mxGeometry y="76" width="220" height="26" as="geometry" />
        </mxCell>
        <mxCell id="JzHmCHcc4jUydCR1_Gb7-66" value="" style="line;strokeWidth=1;fillColor=none;align=left;verticalAlign=middle;spacingTop=-1;spacingLeft=3;spacingRight=3;rotatable=0;labelPosition=right;points=[];portConstraint=eastwest;strokeColor=inherit;" parent="JzHmCHcc4jUydCR1_Gb7-63" vertex="1">
          <mxGeometry y="102" width="220" height="8" as="geometry" />
        </mxCell>
        <mxCell id="JzHmCHcc4jUydCR1_Gb7-121" style="edgeStyle=orthogonalEdgeStyle;rounded=0;orthogonalLoop=1;jettySize=auto;html=1;entryX=0.5;entryY=1;entryDx=0;entryDy=0;endArrow=diamond;endFill=0;endSize=12;" parent="WIyWlLk6GJQsqaUBKTNV-1" source="JzHmCHcc4jUydCR1_Gb7-75" target="JzHmCHcc4jUydCR1_Gb7-77" edge="1">
          <mxGeometry relative="1" as="geometry" />
        </mxCell>
        <mxCell id="JzHmCHcc4jUydCR1_Gb7-75" value="Terrain&lt;br style=&quot;font-size: 15px;&quot;&gt;&amp;lt;&amp;lt;GameObject&amp;gt;&amp;gt;" style="swimlane;fontStyle=1;align=center;verticalAlign=top;childLayout=stackLayout;horizontal=1;startSize=50;horizontalStack=0;resizeParent=1;resizeParentMax=0;resizeLast=0;collapsible=1;marginBottom=0;whiteSpace=wrap;html=1;fontSize=15;fillColor=#d5e8d4;strokeColor=#82b366;" parent="WIyWlLk6GJQsqaUBKTNV-1" vertex="1">
          <mxGeometry x="1021" y="220" width="220" height="58" as="geometry">
            <mxRectangle x="690" y="870" width="160" height="50" as="alternateBounds" />
          </mxGeometry>
        </mxCell>
        <mxCell id="JzHmCHcc4jUydCR1_Gb7-76" value="" style="line;strokeWidth=1;fillColor=none;align=left;verticalAlign=middle;spacingTop=-1;spacingLeft=3;spacingRight=3;rotatable=0;labelPosition=right;points=[];portConstraint=eastwest;strokeColor=inherit;" parent="JzHmCHcc4jUydCR1_Gb7-75" vertex="1">
          <mxGeometry y="50" width="220" height="8" as="geometry" />
        </mxCell>
        <mxCell id="JzHmCHcc4jUydCR1_Gb7-77" value="Map&lt;br&gt;&amp;lt;&amp;lt;Scene&amp;gt;&amp;gt;" style="swimlane;fontStyle=1;align=center;verticalAlign=top;childLayout=stackLayout;horizontal=1;startSize=50;horizontalStack=0;resizeParent=1;resizeParentMax=0;resizeLast=0;collapsible=1;marginBottom=0;whiteSpace=wrap;html=1;fontSize=15;" parent="WIyWlLk6GJQsqaUBKTNV-1" vertex="1">
          <mxGeometry x="1020" y="-50" width="220" height="110" as="geometry" />
        </mxCell>
        <mxCell id="JzHmCHcc4jUydCR1_Gb7-81" value="+ name: string" style="text;strokeColor=none;fillColor=none;align=left;verticalAlign=top;spacingLeft=4;spacingRight=4;overflow=hidden;rotatable=0;points=[[0,0.5],[1,0.5]];portConstraint=eastwest;whiteSpace=wrap;html=1;" parent="JzHmCHcc4jUydCR1_Gb7-77" vertex="1">
          <mxGeometry y="50" width="220" height="26" as="geometry" />
        </mxCell>
        <mxCell id="JzHmCHcc4jUydCR1_Gb7-82" value="+ num: int" style="text;strokeColor=none;fillColor=none;align=left;verticalAlign=top;spacingLeft=4;spacingRight=4;overflow=hidden;rotatable=0;points=[[0,0.5],[1,0.5]];portConstraint=eastwest;whiteSpace=wrap;html=1;" parent="JzHmCHcc4jUydCR1_Gb7-77" vertex="1">
          <mxGeometry y="76" width="220" height="26" as="geometry" />
        </mxCell>
        <mxCell id="JzHmCHcc4jUydCR1_Gb7-78" value="" style="line;strokeWidth=1;fillColor=none;align=left;verticalAlign=middle;spacingTop=-1;spacingLeft=3;spacingRight=3;rotatable=0;labelPosition=right;points=[];portConstraint=eastwest;strokeColor=inherit;" parent="JzHmCHcc4jUydCR1_Gb7-77" vertex="1">
          <mxGeometry y="102" width="220" height="8" as="geometry" />
        </mxCell>
        <mxCell id="JzHmCHcc4jUydCR1_Gb7-546" style="edgeStyle=orthogonalEdgeStyle;rounded=0;orthogonalLoop=1;jettySize=auto;html=1;endArrow=diamond;endFill=0;endSize=12;" parent="WIyWlLk6GJQsqaUBKTNV-1" source="JzHmCHcc4jUydCR1_Gb7-89" target="JzHmCHcc4jUydCR1_Gb7-77" edge="1">
          <mxGeometry relative="1" as="geometry">
            <Array as="points">
              <mxPoint x="970" y="200" />
              <mxPoint x="1100" y="200" />
            </Array>
          </mxGeometry>
        </mxCell>
        <mxCell id="JzHmCHcc4jUydCR1_Gb7-89" value="Object&lt;br style=&quot;font-size: 15px;&quot;&gt;&amp;lt;&amp;lt;GameObject&amp;gt;&amp;gt;" style="swimlane;fontStyle=1;align=center;verticalAlign=top;childLayout=stackLayout;horizontal=1;startSize=50;horizontalStack=0;resizeParent=1;resizeParentMax=0;resizeLast=0;collapsible=1;marginBottom=0;whiteSpace=wrap;html=1;fontSize=15;fillColor=#d5e8d4;strokeColor=#82b366;" parent="WIyWlLk6GJQsqaUBKTNV-1" vertex="1">
          <mxGeometry x="850" y="310" width="220" height="84" as="geometry" />
        </mxCell>
        <mxCell id="JzHmCHcc4jUydCR1_Gb7-90" value="- name: string" style="text;strokeColor=none;fillColor=none;align=left;verticalAlign=top;spacingLeft=4;spacingRight=4;overflow=hidden;rotatable=0;points=[[0,0.5],[1,0.5]];portConstraint=eastwest;whiteSpace=wrap;html=1;fontSize=15;" parent="JzHmCHcc4jUydCR1_Gb7-89" vertex="1">
          <mxGeometry y="50" width="220" height="26" as="geometry" />
        </mxCell>
        <mxCell id="JzHmCHcc4jUydCR1_Gb7-92" value="" style="line;strokeWidth=1;fillColor=none;align=left;verticalAlign=middle;spacingTop=-1;spacingLeft=3;spacingRight=3;rotatable=0;labelPosition=right;points=[];portConstraint=eastwest;strokeColor=inherit;" parent="JzHmCHcc4jUydCR1_Gb7-89" vertex="1">
          <mxGeometry y="76" width="220" height="8" as="geometry" />
        </mxCell>
        <mxCell id="JzHmCHcc4jUydCR1_Gb7-485" style="edgeStyle=orthogonalEdgeStyle;rounded=0;orthogonalLoop=1;jettySize=auto;html=1;endArrow=none;endFill=0;" parent="WIyWlLk6GJQsqaUBKTNV-1" source="JzHmCHcc4jUydCR1_Gb7-94" target="JzHmCHcc4jUydCR1_Gb7-33" edge="1">
          <mxGeometry relative="1" as="geometry">
            <Array as="points">
              <mxPoint x="510" y="-142" />
              <mxPoint x="510" y="-142" />
            </Array>
          </mxGeometry>
        </mxCell>
        <mxCell id="h68TDxjQolyVrIVYv69o-57" value="&lt;font style=&quot;font-size: 17px;&quot;&gt;Collect&lt;/font&gt;" style="edgeLabel;html=1;align=center;verticalAlign=middle;resizable=0;points=[];" vertex="1" connectable="0" parent="JzHmCHcc4jUydCR1_Gb7-485">
          <mxGeometry x="-0.3257" y="1" relative="1" as="geometry">
            <mxPoint as="offset" />
          </mxGeometry>
        </mxCell>
        <mxCell id="JzHmCHcc4jUydCR1_Gb7-493" style="edgeStyle=orthogonalEdgeStyle;rounded=0;orthogonalLoop=1;jettySize=auto;html=1;endArrow=block;endFill=0;endSize=12;" parent="WIyWlLk6GJQsqaUBKTNV-1" source="JzHmCHcc4jUydCR1_Gb7-94" target="JzHmCHcc4jUydCR1_Gb7-89" edge="1">
          <mxGeometry relative="1" as="geometry">
            <Array as="points">
              <mxPoint x="540" y="371" />
            </Array>
          </mxGeometry>
        </mxCell>
        <mxCell id="JzHmCHcc4jUydCR1_Gb7-94" value="Coin&lt;br style=&quot;font-size: 15px;&quot;&gt;" style="swimlane;fontStyle=1;align=center;verticalAlign=top;childLayout=stackLayout;horizontal=1;startSize=30;horizontalStack=0;resizeParent=1;resizeParentMax=0;resizeLast=0;collapsible=1;marginBottom=0;whiteSpace=wrap;html=1;fontSize=15;fillColor=#d5e8d4;strokeColor=#82b366;" parent="WIyWlLk6GJQsqaUBKTNV-1" vertex="1">
          <mxGeometry x="430" y="4" width="180" height="90" as="geometry" />
        </mxCell>
        <mxCell id="JzHmCHcc4jUydCR1_Gb7-95" value="- value: int" style="text;strokeColor=none;fillColor=none;align=left;verticalAlign=top;spacingLeft=4;spacingRight=4;overflow=hidden;rotatable=0;points=[[0,0.5],[1,0.5]];portConstraint=eastwest;whiteSpace=wrap;html=1;fontSize=15;" parent="JzHmCHcc4jUydCR1_Gb7-94" vertex="1">
          <mxGeometry y="30" width="180" height="26" as="geometry" />
        </mxCell>
        <mxCell id="JzHmCHcc4jUydCR1_Gb7-100" value="- coinAudio: AudioSource" style="text;strokeColor=none;fillColor=none;align=left;verticalAlign=top;spacingLeft=4;spacingRight=4;overflow=hidden;rotatable=0;points=[[0,0.5],[1,0.5]];portConstraint=eastwest;whiteSpace=wrap;html=1;fontSize=15;" parent="JzHmCHcc4jUydCR1_Gb7-94" vertex="1">
          <mxGeometry y="56" width="180" height="26" as="geometry" />
        </mxCell>
        <mxCell id="JzHmCHcc4jUydCR1_Gb7-96" value="" style="line;strokeWidth=1;fillColor=none;align=left;verticalAlign=middle;spacingTop=-1;spacingLeft=3;spacingRight=3;rotatable=0;labelPosition=right;points=[];portConstraint=eastwest;strokeColor=inherit;" parent="JzHmCHcc4jUydCR1_Gb7-94" vertex="1">
          <mxGeometry y="82" width="180" height="8" as="geometry" />
        </mxCell>
        <mxCell id="JzHmCHcc4jUydCR1_Gb7-486" style="edgeStyle=orthogonalEdgeStyle;rounded=0;orthogonalLoop=1;jettySize=auto;html=1;endArrow=none;endFill=0;" parent="WIyWlLk6GJQsqaUBKTNV-1" source="JzHmCHcc4jUydCR1_Gb7-97" target="JzHmCHcc4jUydCR1_Gb7-33" edge="1">
          <mxGeometry relative="1" as="geometry">
            <Array as="points">
              <mxPoint x="370" y="-132" />
              <mxPoint x="510" y="-132" />
            </Array>
          </mxGeometry>
        </mxCell>
        <mxCell id="JzHmCHcc4jUydCR1_Gb7-487" value="&lt;font style=&quot;font-size: 17px;&quot;&gt;Collect&lt;/font&gt;" style="edgeLabel;html=1;align=center;verticalAlign=middle;resizable=0;points=[];" parent="JzHmCHcc4jUydCR1_Gb7-486" vertex="1" connectable="0">
          <mxGeometry x="0.7648" y="1" relative="1" as="geometry">
            <mxPoint x="-79" y="72" as="offset" />
          </mxGeometry>
        </mxCell>
        <mxCell id="JzHmCHcc4jUydCR1_Gb7-492" style="edgeStyle=orthogonalEdgeStyle;rounded=0;orthogonalLoop=1;jettySize=auto;html=1;endArrow=block;endFill=0;endSize=12;" parent="WIyWlLk6GJQsqaUBKTNV-1" source="JzHmCHcc4jUydCR1_Gb7-97" target="JzHmCHcc4jUydCR1_Gb7-89" edge="1">
          <mxGeometry relative="1" as="geometry">
            <Array as="points">
              <mxPoint x="440" y="371" />
            </Array>
          </mxGeometry>
        </mxCell>
        <mxCell id="JzHmCHcc4jUydCR1_Gb7-97" value="Experience Point&lt;br&gt;" style="swimlane;fontStyle=1;align=center;verticalAlign=top;childLayout=stackLayout;horizontal=1;startSize=30;horizontalStack=0;resizeParent=1;resizeParentMax=0;resizeLast=0;collapsible=1;marginBottom=0;whiteSpace=wrap;html=1;fontSize=15;fillColor=#d5e8d4;strokeColor=#82b366;" parent="WIyWlLk6GJQsqaUBKTNV-1" vertex="1">
          <mxGeometry x="310" y="136" width="170" height="90" as="geometry" />
        </mxCell>
        <mxCell id="JzHmCHcc4jUydCR1_Gb7-98" value="- value: float" style="text;strokeColor=none;fillColor=none;align=left;verticalAlign=top;spacingLeft=4;spacingRight=4;overflow=hidden;rotatable=0;points=[[0,0.5],[1,0.5]];portConstraint=eastwest;whiteSpace=wrap;html=1;fontSize=15;" parent="JzHmCHcc4jUydCR1_Gb7-97" vertex="1">
          <mxGeometry y="30" width="170" height="26" as="geometry" />
        </mxCell>
        <mxCell id="JzHmCHcc4jUydCR1_Gb7-101" value="- xpAudio: AudioSource" style="text;strokeColor=none;fillColor=none;align=left;verticalAlign=top;spacingLeft=4;spacingRight=4;overflow=hidden;rotatable=0;points=[[0,0.5],[1,0.5]];portConstraint=eastwest;whiteSpace=wrap;html=1;fontSize=15;" parent="JzHmCHcc4jUydCR1_Gb7-97" vertex="1">
          <mxGeometry y="56" width="170" height="26" as="geometry" />
        </mxCell>
        <mxCell id="JzHmCHcc4jUydCR1_Gb7-99" value="" style="line;strokeWidth=1;fillColor=none;align=left;verticalAlign=middle;spacingTop=-1;spacingLeft=3;spacingRight=3;rotatable=0;labelPosition=right;points=[];portConstraint=eastwest;strokeColor=inherit;" parent="JzHmCHcc4jUydCR1_Gb7-97" vertex="1">
          <mxGeometry y="82" width="170" height="8" as="geometry" />
        </mxCell>
        <mxCell id="JzHmCHcc4jUydCR1_Gb7-108" value="Enemy&lt;br style=&quot;font-size: 15px;&quot;&gt;&amp;lt;&amp;lt;GameObject&amp;gt;&amp;gt;" style="swimlane;fontStyle=1;align=center;verticalAlign=top;childLayout=stackLayout;horizontal=1;startSize=50;horizontalStack=0;resizeParent=1;resizeParentMax=0;resizeLast=0;collapsible=1;marginBottom=0;whiteSpace=wrap;html=1;fontSize=15;fillColor=#d5e8d4;strokeColor=#82b366;" parent="WIyWlLk6GJQsqaUBKTNV-1" vertex="1">
          <mxGeometry x="2050" y="-471" width="220" height="110" as="geometry">
            <mxRectangle x="975" y="457" width="160" height="50" as="alternateBounds" />
          </mxGeometry>
        </mxCell>
        <mxCell id="JzHmCHcc4jUydCR1_Gb7-109" value="- tag: string" style="text;strokeColor=none;fillColor=none;align=left;verticalAlign=top;spacingLeft=4;spacingRight=4;overflow=hidden;rotatable=0;points=[[0,0.5],[1,0.5]];portConstraint=eastwest;whiteSpace=wrap;html=1;fontSize=15;" parent="JzHmCHcc4jUydCR1_Gb7-108" vertex="1">
          <mxGeometry y="50" width="220" height="26" as="geometry" />
        </mxCell>
        <mxCell id="JzHmCHcc4jUydCR1_Gb7-110" value="- active: bool" style="text;strokeColor=none;fillColor=none;align=left;verticalAlign=top;spacingLeft=4;spacingRight=4;overflow=hidden;rotatable=0;points=[[0,0.5],[1,0.5]];portConstraint=eastwest;whiteSpace=wrap;html=1;fontSize=15;" parent="JzHmCHcc4jUydCR1_Gb7-108" vertex="1">
          <mxGeometry y="76" width="220" height="26" as="geometry" />
        </mxCell>
        <mxCell id="JzHmCHcc4jUydCR1_Gb7-111" value="" style="line;strokeWidth=1;fillColor=none;align=left;verticalAlign=middle;spacingTop=-1;spacingLeft=3;spacingRight=3;rotatable=0;labelPosition=right;points=[];portConstraint=eastwest;strokeColor=inherit;" parent="JzHmCHcc4jUydCR1_Gb7-108" vertex="1">
          <mxGeometry y="102" width="220" height="8" as="geometry" />
        </mxCell>
        <mxCell id="JzHmCHcc4jUydCR1_Gb7-547" style="edgeStyle=orthogonalEdgeStyle;rounded=0;orthogonalLoop=1;jettySize=auto;html=1;endArrow=diamond;endFill=1;endSize=12;" parent="WIyWlLk6GJQsqaUBKTNV-1" source="JzHmCHcc4jUydCR1_Gb7-112" target="JzHmCHcc4jUydCR1_Gb7-108" edge="1">
          <mxGeometry relative="1" as="geometry" />
        </mxCell>
        <mxCell id="JzHmCHcc4jUydCR1_Gb7-112" value="NavMeshAgent&lt;br style=&quot;font-size: 15px;&quot;&gt;&amp;lt;&amp;lt;Component&amp;gt;&amp;gt;" style="swimlane;fontStyle=1;align=center;verticalAlign=top;childLayout=stackLayout;horizontal=1;startSize=50;horizontalStack=0;resizeParent=1;resizeParentMax=0;resizeLast=0;collapsible=1;marginBottom=0;whiteSpace=wrap;html=1;fontSize=15;fillColor=#dae8fc;strokeColor=#6c8ebf;" parent="WIyWlLk6GJQsqaUBKTNV-1" vertex="1">
          <mxGeometry x="2050" y="-292" width="220" height="136" as="geometry">
            <mxRectangle x="700" y="452" width="160" height="50" as="alternateBounds" />
          </mxGeometry>
        </mxCell>
        <mxCell id="JzHmCHcc4jUydCR1_Gb7-113" value="- agentType: List" style="text;strokeColor=none;fillColor=none;align=left;verticalAlign=top;spacingLeft=4;spacingRight=4;overflow=hidden;rotatable=0;points=[[0,0.5],[1,0.5]];portConstraint=eastwest;whiteSpace=wrap;html=1;fontSize=15;" parent="JzHmCHcc4jUydCR1_Gb7-112" vertex="1">
          <mxGeometry y="50" width="220" height="26" as="geometry" />
        </mxCell>
        <mxCell id="JzHmCHcc4jUydCR1_Gb7-114" value="- speed: float" style="text;strokeColor=none;fillColor=none;align=left;verticalAlign=top;spacingLeft=4;spacingRight=4;overflow=hidden;rotatable=0;points=[[0,0.5],[1,0.5]];portConstraint=eastwest;whiteSpace=wrap;html=1;fontSize=15;" parent="JzHmCHcc4jUydCR1_Gb7-112" vertex="1">
          <mxGeometry y="76" width="220" height="26" as="geometry" />
        </mxCell>
        <mxCell id="JzHmCHcc4jUydCR1_Gb7-116" value="- stoppingDistance: float" style="text;strokeColor=none;fillColor=none;align=left;verticalAlign=top;spacingLeft=4;spacingRight=4;overflow=hidden;rotatable=0;points=[[0,0.5],[1,0.5]];portConstraint=eastwest;whiteSpace=wrap;html=1;fontSize=15;" parent="JzHmCHcc4jUydCR1_Gb7-112" vertex="1">
          <mxGeometry y="102" width="220" height="26" as="geometry" />
        </mxCell>
        <mxCell id="JzHmCHcc4jUydCR1_Gb7-115" value="" style="line;strokeWidth=1;fillColor=none;align=left;verticalAlign=middle;spacingTop=-1;spacingLeft=3;spacingRight=3;rotatable=0;labelPosition=right;points=[];portConstraint=eastwest;strokeColor=inherit;" parent="JzHmCHcc4jUydCR1_Gb7-112" vertex="1">
          <mxGeometry y="128" width="220" height="8" as="geometry" />
        </mxCell>
        <mxCell id="JzHmCHcc4jUydCR1_Gb7-143" style="edgeStyle=orthogonalEdgeStyle;rounded=0;orthogonalLoop=1;jettySize=auto;html=1;entryX=0.5;entryY=1;entryDx=0;entryDy=0;endArrow=diamond;endFill=1;endSize=12;" parent="WIyWlLk6GJQsqaUBKTNV-1" source="JzHmCHcc4jUydCR1_Gb7-127" target="JzHmCHcc4jUydCR1_Gb7-139" edge="1">
          <mxGeometry relative="1" as="geometry">
            <Array as="points">
              <mxPoint x="-90" y="183" />
              <mxPoint x="-90" y="183" />
            </Array>
          </mxGeometry>
        </mxCell>
        <mxCell id="JzHmCHcc4jUydCR1_Gb7-127" value="ConnectToServer&lt;br style=&quot;font-size: 15px;&quot;&gt;&amp;lt;&amp;lt;MonoBehaviourPunCallbacks&amp;gt;&amp;gt;Script" style="swimlane;fontStyle=1;align=center;verticalAlign=top;childLayout=stackLayout;horizontal=1;startSize=50;horizontalStack=0;resizeParent=1;resizeParentMax=0;resizeLast=0;collapsible=1;marginBottom=0;whiteSpace=wrap;html=1;fontSize=15;fillColor=#fff2cc;strokeColor=#d6b656;" parent="WIyWlLk6GJQsqaUBKTNV-1" vertex="1">
          <mxGeometry x="-250" y="38" width="320" height="240" as="geometry">
            <mxRectangle x="30" y="520" width="230" height="50" as="alternateBounds" />
          </mxGeometry>
        </mxCell>
        <mxCell id="JzHmCHcc4jUydCR1_Gb7-132" value="" style="line;strokeWidth=1;fillColor=none;align=left;verticalAlign=middle;spacingTop=-1;spacingLeft=3;spacingRight=3;rotatable=0;labelPosition=right;points=[];portConstraint=eastwest;strokeColor=inherit;" parent="JzHmCHcc4jUydCR1_Gb7-127" vertex="1">
          <mxGeometry y="50" width="320" height="8" as="geometry" />
        </mxCell>
        <mxCell id="JzHmCHcc4jUydCR1_Gb7-160" value="-&amp;nbsp;Start()" style="text;strokeColor=none;fillColor=none;align=left;verticalAlign=top;spacingLeft=4;spacingRight=4;overflow=hidden;rotatable=0;points=[[0,0.5],[1,0.5]];portConstraint=eastwest;whiteSpace=wrap;html=1;fontSize=15;" parent="JzHmCHcc4jUydCR1_Gb7-127" vertex="1">
          <mxGeometry y="58" width="320" height="26" as="geometry" />
        </mxCell>
        <mxCell id="JzHmCHcc4jUydCR1_Gb7-130" value="- CheckInternetConnection()" style="text;strokeColor=none;fillColor=none;align=left;verticalAlign=top;spacingLeft=4;spacingRight=4;overflow=hidden;rotatable=0;points=[[0,0.5],[1,0.5]];portConstraint=eastwest;whiteSpace=wrap;html=1;fontSize=15;" parent="JzHmCHcc4jUydCR1_Gb7-127" vertex="1">
          <mxGeometry y="84" width="320" height="26" as="geometry" />
        </mxCell>
        <mxCell id="JzHmCHcc4jUydCR1_Gb7-131" value="-&amp;nbsp;StartConnection()" style="text;strokeColor=none;fillColor=none;align=left;verticalAlign=top;spacingLeft=4;spacingRight=4;overflow=hidden;rotatable=0;points=[[0,0.5],[1,0.5]];portConstraint=eastwest;whiteSpace=wrap;html=1;fontSize=15;" parent="JzHmCHcc4jUydCR1_Gb7-127" vertex="1">
          <mxGeometry y="110" width="320" height="26" as="geometry" />
        </mxCell>
        <mxCell id="JzHmCHcc4jUydCR1_Gb7-134" value="+&amp;nbsp;OnConnectedToMaster()" style="text;strokeColor=none;fillColor=none;align=left;verticalAlign=top;spacingLeft=4;spacingRight=4;overflow=hidden;rotatable=0;points=[[0,0.5],[1,0.5]];portConstraint=eastwest;whiteSpace=wrap;html=1;fontSize=15;" parent="JzHmCHcc4jUydCR1_Gb7-127" vertex="1">
          <mxGeometry y="136" width="320" height="26" as="geometry" />
        </mxCell>
        <mxCell id="JzHmCHcc4jUydCR1_Gb7-136" value="-&amp;nbsp;LoadSceneAsync()" style="text;strokeColor=none;fillColor=none;align=left;verticalAlign=top;spacingLeft=4;spacingRight=4;overflow=hidden;rotatable=0;points=[[0,0.5],[1,0.5]];portConstraint=eastwest;whiteSpace=wrap;html=1;fontSize=15;" parent="JzHmCHcc4jUydCR1_Gb7-127" vertex="1">
          <mxGeometry y="162" width="320" height="26" as="geometry" />
        </mxCell>
        <mxCell id="JzHmCHcc4jUydCR1_Gb7-135" value="+&amp;nbsp;OnLeftRoom()" style="text;strokeColor=none;fillColor=none;align=left;verticalAlign=top;spacingLeft=4;spacingRight=4;overflow=hidden;rotatable=0;points=[[0,0.5],[1,0.5]];portConstraint=eastwest;whiteSpace=wrap;html=1;fontSize=15;" parent="JzHmCHcc4jUydCR1_Gb7-127" vertex="1">
          <mxGeometry y="188" width="320" height="26" as="geometry" />
        </mxCell>
        <mxCell id="JzHmCHcc4jUydCR1_Gb7-133" value="+ OnDisconnected(DisconnectCause cause)" style="text;strokeColor=none;fillColor=none;align=left;verticalAlign=top;spacingLeft=4;spacingRight=4;overflow=hidden;rotatable=0;points=[[0,0.5],[1,0.5]];portConstraint=eastwest;whiteSpace=wrap;html=1;fontSize=15;" parent="JzHmCHcc4jUydCR1_Gb7-127" vertex="1">
          <mxGeometry y="214" width="320" height="26" as="geometry" />
        </mxCell>
        <mxCell id="JzHmCHcc4jUydCR1_Gb7-158" style="edgeStyle=orthogonalEdgeStyle;rounded=0;orthogonalLoop=1;jettySize=auto;html=1;entryX=0.5;entryY=1;entryDx=0;entryDy=0;endArrow=none;endFill=0;" parent="WIyWlLk6GJQsqaUBKTNV-1" source="JzHmCHcc4jUydCR1_Gb7-139" target="JzHmCHcc4jUydCR1_Gb7-152" edge="1">
          <mxGeometry relative="1" as="geometry">
            <Array as="points">
              <mxPoint x="-90" y="-162" />
              <mxPoint x="-90" y="-162" />
            </Array>
          </mxGeometry>
        </mxCell>
        <mxCell id="JzHmCHcc4jUydCR1_Gb7-159" value="&lt;font style=&quot;font-size: 17px;&quot;&gt;Connect&lt;/font&gt;" style="edgeLabel;html=1;align=center;verticalAlign=middle;resizable=0;points=[];" parent="JzHmCHcc4jUydCR1_Gb7-158" vertex="1" connectable="0">
          <mxGeometry x="-0.2186" y="6" relative="1" as="geometry">
            <mxPoint y="-9" as="offset" />
          </mxGeometry>
        </mxCell>
        <mxCell id="JzHmCHcc4jUydCR1_Gb7-139" value="ConnectToServer&lt;br style=&quot;font-size: 15px;&quot;&gt;&amp;lt;&amp;lt;GameObject&amp;gt;&amp;gt;" style="swimlane;fontStyle=1;align=center;verticalAlign=top;childLayout=stackLayout;horizontal=1;startSize=50;horizontalStack=0;resizeParent=1;resizeParentMax=0;resizeLast=0;collapsible=1;marginBottom=0;whiteSpace=wrap;html=1;fontSize=15;fillColor=#d5e8d4;strokeColor=#82b366;" parent="WIyWlLk6GJQsqaUBKTNV-1" vertex="1">
          <mxGeometry x="-200" y="-132" width="220" height="110" as="geometry">
            <mxRectangle x="-510" y="350" width="160" height="50" as="alternateBounds" />
          </mxGeometry>
        </mxCell>
        <mxCell id="JzHmCHcc4jUydCR1_Gb7-140" value="- tag: string" style="text;strokeColor=none;fillColor=none;align=left;verticalAlign=top;spacingLeft=4;spacingRight=4;overflow=hidden;rotatable=0;points=[[0,0.5],[1,0.5]];portConstraint=eastwest;whiteSpace=wrap;html=1;fontSize=15;" parent="JzHmCHcc4jUydCR1_Gb7-139" vertex="1">
          <mxGeometry y="50" width="220" height="26" as="geometry" />
        </mxCell>
        <mxCell id="JzHmCHcc4jUydCR1_Gb7-141" value="- active: bool" style="text;strokeColor=none;fillColor=none;align=left;verticalAlign=top;spacingLeft=4;spacingRight=4;overflow=hidden;rotatable=0;points=[[0,0.5],[1,0.5]];portConstraint=eastwest;whiteSpace=wrap;html=1;fontSize=15;" parent="JzHmCHcc4jUydCR1_Gb7-139" vertex="1">
          <mxGeometry y="76" width="220" height="26" as="geometry" />
        </mxCell>
        <mxCell id="JzHmCHcc4jUydCR1_Gb7-142" value="" style="line;strokeWidth=1;fillColor=none;align=left;verticalAlign=middle;spacingTop=-1;spacingLeft=3;spacingRight=3;rotatable=0;labelPosition=right;points=[];portConstraint=eastwest;strokeColor=inherit;" parent="JzHmCHcc4jUydCR1_Gb7-139" vertex="1">
          <mxGeometry y="102" width="220" height="8" as="geometry" />
        </mxCell>
        <mxCell id="JzHmCHcc4jUydCR1_Gb7-152" value="GameManager&lt;br style=&quot;font-size: 15px;&quot;&gt;&amp;lt;&amp;lt;GameObject&amp;gt;&amp;gt;" style="swimlane;fontStyle=1;align=center;verticalAlign=top;childLayout=stackLayout;horizontal=1;startSize=50;horizontalStack=0;resizeParent=1;resizeParentMax=0;resizeLast=0;collapsible=1;marginBottom=0;whiteSpace=wrap;html=1;fontSize=15;fillColor=#d5e8d4;strokeColor=#82b366;" parent="WIyWlLk6GJQsqaUBKTNV-1" vertex="1">
          <mxGeometry x="-200" y="-352" width="220" height="110" as="geometry">
            <mxRectangle x="400" y="30" width="160" height="50" as="alternateBounds" />
          </mxGeometry>
        </mxCell>
        <mxCell id="JzHmCHcc4jUydCR1_Gb7-153" value="- tag: string" style="text;strokeColor=none;fillColor=none;align=left;verticalAlign=top;spacingLeft=4;spacingRight=4;overflow=hidden;rotatable=0;points=[[0,0.5],[1,0.5]];portConstraint=eastwest;whiteSpace=wrap;html=1;fontSize=15;" parent="JzHmCHcc4jUydCR1_Gb7-152" vertex="1">
          <mxGeometry y="50" width="220" height="26" as="geometry" />
        </mxCell>
        <mxCell id="JzHmCHcc4jUydCR1_Gb7-154" value="- active: bool" style="text;strokeColor=none;fillColor=none;align=left;verticalAlign=top;spacingLeft=4;spacingRight=4;overflow=hidden;rotatable=0;points=[[0,0.5],[1,0.5]];portConstraint=eastwest;whiteSpace=wrap;html=1;fontSize=15;" parent="JzHmCHcc4jUydCR1_Gb7-152" vertex="1">
          <mxGeometry y="76" width="220" height="26" as="geometry" />
        </mxCell>
        <mxCell id="JzHmCHcc4jUydCR1_Gb7-155" value="" style="line;strokeWidth=1;fillColor=none;align=left;verticalAlign=middle;spacingTop=-1;spacingLeft=3;spacingRight=3;rotatable=0;labelPosition=right;points=[];portConstraint=eastwest;strokeColor=inherit;" parent="JzHmCHcc4jUydCR1_Gb7-152" vertex="1">
          <mxGeometry y="102" width="220" height="8" as="geometry" />
        </mxCell>
        <mxCell id="JzHmCHcc4jUydCR1_Gb7-161" style="edgeStyle=orthogonalEdgeStyle;rounded=0;orthogonalLoop=1;jettySize=auto;html=1;entryX=0;entryY=0.5;entryDx=0;entryDy=0;endArrow=none;endFill=0;" parent="WIyWlLk6GJQsqaUBKTNV-1" source="JzHmCHcc4jUydCR1_Gb7-153" target="JzHmCHcc4jUydCR1_Gb7-22" edge="1">
          <mxGeometry relative="1" as="geometry" />
        </mxCell>
        <mxCell id="JzHmCHcc4jUydCR1_Gb7-162" value="&lt;font style=&quot;font-size: 17px;&quot;&gt;Own&lt;/font&gt;" style="edgeLabel;html=1;align=center;verticalAlign=middle;resizable=0;points=[];" parent="JzHmCHcc4jUydCR1_Gb7-161" vertex="1" connectable="0">
          <mxGeometry x="-0.2006" relative="1" as="geometry">
            <mxPoint x="10" as="offset" />
          </mxGeometry>
        </mxCell>
        <mxCell id="h68TDxjQolyVrIVYv69o-416" style="edgeStyle=orthogonalEdgeStyle;rounded=0;orthogonalLoop=1;jettySize=auto;html=1;" edge="1" parent="WIyWlLk6GJQsqaUBKTNV-1" source="JzHmCHcc4jUydCR1_Gb7-175" target="JzHmCHcc4jUydCR1_Gb7-108">
          <mxGeometry relative="1" as="geometry">
            <Array as="points">
              <mxPoint x="2300" y="-96" />
              <mxPoint x="2300" y="-416" />
            </Array>
          </mxGeometry>
        </mxCell>
        <mxCell id="JzHmCHcc4jUydCR1_Gb7-175" value="EnemyControl&lt;br style=&quot;font-size: 15px;&quot;&gt;&amp;lt;&amp;lt;MonoBehaviour&amp;gt;&amp;gt;Script" style="swimlane;fontStyle=1;align=center;verticalAlign=top;childLayout=stackLayout;horizontal=1;startSize=50;horizontalStack=0;resizeParent=1;resizeParentMax=0;resizeLast=0;collapsible=1;marginBottom=0;whiteSpace=wrap;html=1;fontSize=15;fillColor=#fff2cc;strokeColor=#d6b656;" parent="WIyWlLk6GJQsqaUBKTNV-1" vertex="1">
          <mxGeometry x="2325" y="-270" width="330" height="348" as="geometry">
            <mxRectangle x="1250" y="350" width="230" height="50" as="alternateBounds" />
          </mxGeometry>
        </mxCell>
        <mxCell id="JzHmCHcc4jUydCR1_Gb7-186" value="+ enemyState : EnemyState" style="text;strokeColor=none;fillColor=none;align=left;verticalAlign=top;spacingLeft=4;spacingRight=4;overflow=hidden;rotatable=0;points=[[0,0.5],[1,0.5]];portConstraint=eastwest;whiteSpace=wrap;html=1;fontSize=15;" parent="JzHmCHcc4jUydCR1_Gb7-175" vertex="1">
          <mxGeometry y="50" width="330" height="30" as="geometry" />
        </mxCell>
        <mxCell id="JzHmCHcc4jUydCR1_Gb7-176" value="- damageAmount: float" style="text;strokeColor=none;fillColor=none;align=left;verticalAlign=top;spacingLeft=4;spacingRight=4;overflow=hidden;rotatable=0;points=[[0,0.5],[1,0.5]];portConstraint=eastwest;whiteSpace=wrap;html=1;fontSize=15;" parent="JzHmCHcc4jUydCR1_Gb7-175" vertex="1">
          <mxGeometry y="80" width="330" height="26" as="geometry" />
        </mxCell>
        <mxCell id="JzHmCHcc4jUydCR1_Gb7-181" value="- attackDistance: float" style="text;strokeColor=none;fillColor=none;align=left;verticalAlign=top;spacingLeft=4;spacingRight=4;overflow=hidden;rotatable=0;points=[[0,0.5],[1,0.5]];portConstraint=eastwest;whiteSpace=wrap;html=1;fontSize=15;" parent="JzHmCHcc4jUydCR1_Gb7-175" vertex="1">
          <mxGeometry y="106" width="330" height="26" as="geometry" />
        </mxCell>
        <mxCell id="JzHmCHcc4jUydCR1_Gb7-182" value="- alertAttackDistance: float" style="text;strokeColor=none;fillColor=none;align=left;verticalAlign=top;spacingLeft=4;spacingRight=4;overflow=hidden;rotatable=0;points=[[0,0.5],[1,0.5]];portConstraint=eastwest;whiteSpace=wrap;html=1;fontSize=15;" parent="JzHmCHcc4jUydCR1_Gb7-175" vertex="1">
          <mxGeometry y="132" width="330" height="26" as="geometry" />
        </mxCell>
        <mxCell id="JzHmCHcc4jUydCR1_Gb7-183" value="- followDistance: float" style="text;strokeColor=none;fillColor=none;align=left;verticalAlign=top;spacingLeft=4;spacingRight=4;overflow=hidden;rotatable=0;points=[[0,0.5],[1,0.5]];portConstraint=eastwest;whiteSpace=wrap;html=1;fontSize=15;" parent="JzHmCHcc4jUydCR1_Gb7-175" vertex="1">
          <mxGeometry y="158" width="330" height="26" as="geometry" />
        </mxCell>
        <mxCell id="JzHmCHcc4jUydCR1_Gb7-184" value="- walkSpeed: float" style="text;strokeColor=none;fillColor=none;align=left;verticalAlign=top;spacingLeft=4;spacingRight=4;overflow=hidden;rotatable=0;points=[[0,0.5],[1,0.5]];portConstraint=eastwest;whiteSpace=wrap;html=1;fontSize=15;" parent="JzHmCHcc4jUydCR1_Gb7-175" vertex="1">
          <mxGeometry y="184" width="330" height="26" as="geometry" />
        </mxCell>
        <mxCell id="JzHmCHcc4jUydCR1_Gb7-375" value="- anim: Animator" style="text;strokeColor=none;fillColor=none;align=left;verticalAlign=top;spacingLeft=4;spacingRight=4;overflow=hidden;rotatable=0;points=[[0,0.5],[1,0.5]];portConstraint=eastwest;whiteSpace=wrap;html=1;fontSize=15;" parent="JzHmCHcc4jUydCR1_Gb7-175" vertex="1">
          <mxGeometry y="210" width="330" height="26" as="geometry" />
        </mxCell>
        <mxCell id="JzHmCHcc4jUydCR1_Gb7-180" value="" style="line;strokeWidth=1;fillColor=none;align=left;verticalAlign=middle;spacingTop=-1;spacingLeft=3;spacingRight=3;rotatable=0;labelPosition=right;points=[];portConstraint=eastwest;strokeColor=inherit;" parent="JzHmCHcc4jUydCR1_Gb7-175" vertex="1">
          <mxGeometry y="236" width="330" height="8" as="geometry" />
        </mxCell>
        <mxCell id="JzHmCHcc4jUydCR1_Gb7-185" value="- ClosestPlayer()" style="text;strokeColor=none;fillColor=none;align=left;verticalAlign=top;spacingLeft=4;spacingRight=4;overflow=hidden;rotatable=0;points=[[0,0.5],[1,0.5]];portConstraint=eastwest;whiteSpace=wrap;html=1;fontSize=15;" parent="JzHmCHcc4jUydCR1_Gb7-175" vertex="1">
          <mxGeometry y="244" width="330" height="26" as="geometry" />
        </mxCell>
        <mxCell id="JzHmCHcc4jUydCR1_Gb7-199" value="-&amp;nbsp;GetStateControl(EnemyState curState)" style="text;strokeColor=none;fillColor=none;align=left;verticalAlign=top;spacingLeft=4;spacingRight=4;overflow=hidden;rotatable=0;points=[[0,0.5],[1,0.5]];portConstraint=eastwest;whiteSpace=wrap;html=1;fontSize=15;" parent="JzHmCHcc4jUydCR1_Gb7-175" vertex="1">
          <mxGeometry y="270" width="330" height="26" as="geometry" />
        </mxCell>
        <mxCell id="JzHmCHcc4jUydCR1_Gb7-198" value="-&amp;nbsp;SetEnemyState(EnemyState curState)" style="text;strokeColor=none;fillColor=none;align=left;verticalAlign=top;spacingLeft=4;spacingRight=4;overflow=hidden;rotatable=0;points=[[0,0.5],[1,0.5]];portConstraint=eastwest;whiteSpace=wrap;html=1;fontSize=15;" parent="JzHmCHcc4jUydCR1_Gb7-175" vertex="1">
          <mxGeometry y="296" width="330" height="26" as="geometry" />
        </mxCell>
        <mxCell id="JzHmCHcc4jUydCR1_Gb7-201" value="-&amp;nbsp;dealDamage()" style="text;strokeColor=none;fillColor=none;align=left;verticalAlign=top;spacingLeft=4;spacingRight=4;overflow=hidden;rotatable=0;points=[[0,0.5],[1,0.5]];portConstraint=eastwest;whiteSpace=wrap;html=1;fontSize=15;" parent="JzHmCHcc4jUydCR1_Gb7-175" vertex="1">
          <mxGeometry y="322" width="330" height="26" as="geometry" />
        </mxCell>
        <mxCell id="JzHmCHcc4jUydCR1_Gb7-550" style="edgeStyle=orthogonalEdgeStyle;rounded=0;orthogonalLoop=1;jettySize=auto;html=1;endArrow=none;endFill=0;" parent="WIyWlLk6GJQsqaUBKTNV-1" source="JzHmCHcc4jUydCR1_Gb7-188" target="JzHmCHcc4jUydCR1_Gb7-175" edge="1">
          <mxGeometry relative="1" as="geometry">
            <Array as="points">
              <mxPoint x="2320" y="-23" />
              <mxPoint x="2320" y="-23" />
            </Array>
          </mxGeometry>
        </mxCell>
        <mxCell id="JzHmCHcc4jUydCR1_Gb7-188" value="EnemyState&lt;br&gt;&amp;lt;&amp;lt;Enum&amp;gt;&amp;gt;" style="swimlane;fontStyle=1;align=center;verticalAlign=top;childLayout=stackLayout;horizontal=1;startSize=50;horizontalStack=0;resizeParent=1;resizeParentMax=0;resizeLast=0;collapsible=1;marginBottom=0;whiteSpace=wrap;html=1;fontSize=15;" parent="WIyWlLk6GJQsqaUBKTNV-1" vertex="1">
          <mxGeometry x="2090" y="-104" width="130" height="162" as="geometry">
            <mxRectangle x="2140" y="-585" width="230" height="50" as="alternateBounds" />
          </mxGeometry>
        </mxCell>
        <mxCell id="JzHmCHcc4jUydCR1_Gb7-190" value="- IDLE" style="text;strokeColor=none;fillColor=none;align=left;verticalAlign=top;spacingLeft=4;spacingRight=4;overflow=hidden;rotatable=0;points=[[0,0.5],[1,0.5]];portConstraint=eastwest;whiteSpace=wrap;html=1;fontSize=15;" parent="JzHmCHcc4jUydCR1_Gb7-188" vertex="1">
          <mxGeometry y="50" width="130" height="26" as="geometry" />
        </mxCell>
        <mxCell id="JzHmCHcc4jUydCR1_Gb7-194" value="- WALK" style="text;strokeColor=none;fillColor=none;align=left;verticalAlign=top;spacingLeft=4;spacingRight=4;overflow=hidden;rotatable=0;points=[[0,0.5],[1,0.5]];portConstraint=eastwest;whiteSpace=wrap;html=1;fontSize=15;" parent="JzHmCHcc4jUydCR1_Gb7-188" vertex="1">
          <mxGeometry y="76" width="130" height="26" as="geometry" />
        </mxCell>
        <mxCell id="JzHmCHcc4jUydCR1_Gb7-195" value="- ATTACK" style="text;strokeColor=none;fillColor=none;align=left;verticalAlign=top;spacingLeft=4;spacingRight=4;overflow=hidden;rotatable=0;points=[[0,0.5],[1,0.5]];portConstraint=eastwest;whiteSpace=wrap;html=1;fontSize=15;" parent="JzHmCHcc4jUydCR1_Gb7-188" vertex="1">
          <mxGeometry y="102" width="130" height="26" as="geometry" />
        </mxCell>
        <mxCell id="JzHmCHcc4jUydCR1_Gb7-196" value="- DEATH" style="text;strokeColor=none;fillColor=none;align=left;verticalAlign=top;spacingLeft=4;spacingRight=4;overflow=hidden;rotatable=0;points=[[0,0.5],[1,0.5]];portConstraint=eastwest;whiteSpace=wrap;html=1;fontSize=15;" parent="JzHmCHcc4jUydCR1_Gb7-188" vertex="1">
          <mxGeometry y="128" width="130" height="26" as="geometry" />
        </mxCell>
        <mxCell id="JzHmCHcc4jUydCR1_Gb7-193" value="" style="line;strokeWidth=1;fillColor=none;align=left;verticalAlign=middle;spacingTop=-1;spacingLeft=3;spacingRight=3;rotatable=0;labelPosition=right;points=[];portConstraint=eastwest;strokeColor=inherit;" parent="JzHmCHcc4jUydCR1_Gb7-188" vertex="1">
          <mxGeometry y="154" width="130" height="8" as="geometry" />
        </mxCell>
        <mxCell id="h68TDxjQolyVrIVYv69o-418" style="edgeStyle=orthogonalEdgeStyle;rounded=0;orthogonalLoop=1;jettySize=auto;html=1;endArrow=diamond;endFill=1;endSize=12;" edge="1" parent="WIyWlLk6GJQsqaUBKTNV-1" source="JzHmCHcc4jUydCR1_Gb7-253" target="JzHmCHcc4jUydCR1_Gb7-108">
          <mxGeometry relative="1" as="geometry">
            <Array as="points">
              <mxPoint x="2300" y="-476" />
              <mxPoint x="2300" y="-416" />
            </Array>
          </mxGeometry>
        </mxCell>
        <mxCell id="JzHmCHcc4jUydCR1_Gb7-253" value="EnemyHealth&lt;br style=&quot;font-size: 15px;&quot;&gt;&amp;lt;&amp;lt;MonoBehaviour&amp;gt;&amp;gt;Script" style="swimlane;fontStyle=1;align=center;verticalAlign=top;childLayout=stackLayout;horizontal=1;startSize=50;horizontalStack=0;resizeParent=1;resizeParentMax=0;resizeLast=0;collapsible=1;marginBottom=0;whiteSpace=wrap;html=1;fontSize=15;fillColor=#fff2cc;strokeColor=#d6b656;" parent="WIyWlLk6GJQsqaUBKTNV-1" vertex="1">
          <mxGeometry x="2325" y="-630" width="340" height="308" as="geometry">
            <mxRectangle x="1080" y="670" width="230" height="50" as="alternateBounds" />
          </mxGeometry>
        </mxCell>
        <mxCell id="JzHmCHcc4jUydCR1_Gb7-254" value="+ startingHelath: float" style="text;strokeColor=none;fillColor=none;align=left;verticalAlign=top;spacingLeft=4;spacingRight=4;overflow=hidden;rotatable=0;points=[[0,0.5],[1,0.5]];portConstraint=eastwest;whiteSpace=wrap;html=1;fontSize=15;" parent="JzHmCHcc4jUydCR1_Gb7-253" vertex="1">
          <mxGeometry y="50" width="340" height="30" as="geometry" />
        </mxCell>
        <mxCell id="JzHmCHcc4jUydCR1_Gb7-265" value="+ currentHelath: float" style="text;strokeColor=none;fillColor=none;align=left;verticalAlign=top;spacingLeft=4;spacingRight=4;overflow=hidden;rotatable=0;points=[[0,0.5],[1,0.5]];portConstraint=eastwest;whiteSpace=wrap;html=1;fontSize=15;" parent="JzHmCHcc4jUydCR1_Gb7-253" vertex="1">
          <mxGeometry y="80" width="340" height="30" as="geometry" />
        </mxCell>
        <mxCell id="JzHmCHcc4jUydCR1_Gb7-267" value="+ healthText:&amp;nbsp;TextMeshProUGUI" style="text;strokeColor=none;fillColor=none;align=left;verticalAlign=top;spacingLeft=4;spacingRight=4;overflow=hidden;rotatable=0;points=[[0,0.5],[1,0.5]];portConstraint=eastwest;whiteSpace=wrap;html=1;fontSize=15;" parent="JzHmCHcc4jUydCR1_Gb7-253" vertex="1">
          <mxGeometry y="110" width="340" height="30" as="geometry" />
        </mxCell>
        <mxCell id="JzHmCHcc4jUydCR1_Gb7-266" value="+ healthFill: Image" style="text;strokeColor=none;fillColor=none;align=left;verticalAlign=top;spacingLeft=4;spacingRight=4;overflow=hidden;rotatable=0;points=[[0,0.5],[1,0.5]];portConstraint=eastwest;whiteSpace=wrap;html=1;fontSize=15;" parent="JzHmCHcc4jUydCR1_Gb7-253" vertex="1">
          <mxGeometry y="140" width="340" height="30" as="geometry" />
        </mxCell>
        <mxCell id="JzHmCHcc4jUydCR1_Gb7-259" value="" style="line;strokeWidth=1;fillColor=none;align=left;verticalAlign=middle;spacingTop=-1;spacingLeft=3;spacingRight=3;rotatable=0;labelPosition=right;points=[];portConstraint=eastwest;strokeColor=inherit;" parent="JzHmCHcc4jUydCR1_Gb7-253" vertex="1">
          <mxGeometry y="170" width="340" height="8" as="geometry" />
        </mxCell>
        <mxCell id="JzHmCHcc4jUydCR1_Gb7-260" value="- Start()" style="text;strokeColor=none;fillColor=none;align=left;verticalAlign=top;spacingLeft=4;spacingRight=4;overflow=hidden;rotatable=0;points=[[0,0.5],[1,0.5]];portConstraint=eastwest;whiteSpace=wrap;html=1;fontSize=15;" parent="JzHmCHcc4jUydCR1_Gb7-253" vertex="1">
          <mxGeometry y="178" width="340" height="26" as="geometry" />
        </mxCell>
        <mxCell id="JzHmCHcc4jUydCR1_Gb7-262" value="+TakeDamage(float damage)" style="text;strokeColor=none;fillColor=none;align=left;verticalAlign=top;spacingLeft=4;spacingRight=4;overflow=hidden;rotatable=0;points=[[0,0.5],[1,0.5]];portConstraint=eastwest;whiteSpace=wrap;html=1;fontSize=15;" parent="JzHmCHcc4jUydCR1_Gb7-253" vertex="1">
          <mxGeometry y="204" width="340" height="26" as="geometry" />
        </mxCell>
        <mxCell id="JzHmCHcc4jUydCR1_Gb7-263" value="+SpawnCoinsXP()" style="text;strokeColor=none;fillColor=none;align=left;verticalAlign=top;spacingLeft=4;spacingRight=4;overflow=hidden;rotatable=0;points=[[0,0.5],[1,0.5]];portConstraint=eastwest;whiteSpace=wrap;html=1;fontSize=15;" parent="JzHmCHcc4jUydCR1_Gb7-253" vertex="1">
          <mxGeometry y="230" width="340" height="26" as="geometry" />
        </mxCell>
        <mxCell id="JzHmCHcc4jUydCR1_Gb7-268" value="+&amp;nbsp;UpdateUI()" style="text;strokeColor=none;fillColor=none;align=left;verticalAlign=top;spacingLeft=4;spacingRight=4;overflow=hidden;rotatable=0;points=[[0,0.5],[1,0.5]];portConstraint=eastwest;whiteSpace=wrap;html=1;fontSize=15;" parent="JzHmCHcc4jUydCR1_Gb7-253" vertex="1">
          <mxGeometry y="256" width="340" height="26" as="geometry" />
        </mxCell>
        <mxCell id="JzHmCHcc4jUydCR1_Gb7-269" value="+&amp;nbsp;OnPhotonSerializeView(PhotonStream stream)" style="text;strokeColor=none;fillColor=none;align=left;verticalAlign=top;spacingLeft=4;spacingRight=4;overflow=hidden;rotatable=0;points=[[0,0.5],[1,0.5]];portConstraint=eastwest;whiteSpace=wrap;html=1;fontSize=15;" parent="JzHmCHcc4jUydCR1_Gb7-253" vertex="1">
          <mxGeometry y="282" width="340" height="26" as="geometry" />
        </mxCell>
        <mxCell id="JzHmCHcc4jUydCR1_Gb7-543" style="edgeStyle=orthogonalEdgeStyle;rounded=0;orthogonalLoop=1;jettySize=auto;html=1;endArrow=diamond;endFill=1;endSize=12;" parent="WIyWlLk6GJQsqaUBKTNV-1" source="JzHmCHcc4jUydCR1_Gb7-319" target="JzHmCHcc4jUydCR1_Gb7-97" edge="1">
          <mxGeometry relative="1" as="geometry">
            <Array as="points">
              <mxPoint x="200" y="188" />
            </Array>
          </mxGeometry>
        </mxCell>
        <mxCell id="JzHmCHcc4jUydCR1_Gb7-544" style="edgeStyle=orthogonalEdgeStyle;rounded=0;orthogonalLoop=1;jettySize=auto;html=1;endArrow=diamond;endFill=1;endSize=12;jumpStyle=arc;strokeWidth=1;jumpSize=14;" parent="WIyWlLk6GJQsqaUBKTNV-1" source="JzHmCHcc4jUydCR1_Gb7-319" target="JzHmCHcc4jUydCR1_Gb7-94" edge="1">
          <mxGeometry relative="1" as="geometry">
            <Array as="points">
              <mxPoint x="340" y="78" />
              <mxPoint x="340" y="78" />
            </Array>
          </mxGeometry>
        </mxCell>
        <mxCell id="JzHmCHcc4jUydCR1_Gb7-319" value="AudioListener&lt;br style=&quot;font-size: 15px;&quot;&gt;&amp;lt;&amp;lt;Component&amp;gt;&amp;gt;" style="swimlane;fontStyle=1;align=center;verticalAlign=top;childLayout=stackLayout;horizontal=1;startSize=50;horizontalStack=0;resizeParent=1;resizeParentMax=0;resizeLast=0;collapsible=1;marginBottom=0;whiteSpace=wrap;html=1;fontSize=15;fillColor=#dae8fc;strokeColor=#6c8ebf;" parent="WIyWlLk6GJQsqaUBKTNV-1" vertex="1">
          <mxGeometry x="90" y="48" width="220" height="58" as="geometry">
            <mxRectangle x="690" y="870" width="160" height="50" as="alternateBounds" />
          </mxGeometry>
        </mxCell>
        <mxCell id="JzHmCHcc4jUydCR1_Gb7-320" value="" style="line;strokeWidth=1;fillColor=none;align=left;verticalAlign=middle;spacingTop=-1;spacingLeft=3;spacingRight=3;rotatable=0;labelPosition=right;points=[];portConstraint=eastwest;strokeColor=inherit;" parent="JzHmCHcc4jUydCR1_Gb7-319" vertex="1">
          <mxGeometry y="50" width="220" height="8" as="geometry" />
        </mxCell>
        <mxCell id="JzHmCHcc4jUydCR1_Gb7-526" style="edgeStyle=orthogonalEdgeStyle;rounded=0;orthogonalLoop=1;jettySize=auto;html=1;endArrow=diamond;endFill=1;endSize=12;" parent="WIyWlLk6GJQsqaUBKTNV-1" source="JzHmCHcc4jUydCR1_Gb7-321" target="JzHmCHcc4jUydCR1_Gb7-63" edge="1">
          <mxGeometry relative="1" as="geometry">
            <Array as="points">
              <mxPoint x="839" y="98" />
              <mxPoint x="760" y="98" />
            </Array>
          </mxGeometry>
        </mxCell>
        <mxCell id="JzHmCHcc4jUydCR1_Gb7-321" value="CinemachineVirtualCamera&lt;br&gt;&amp;lt;&amp;lt;Component&amp;gt;&amp;gt;" style="swimlane;fontStyle=1;align=center;verticalAlign=top;childLayout=stackLayout;horizontal=1;startSize=50;horizontalStack=0;resizeParent=1;resizeParentMax=0;resizeLast=0;collapsible=1;marginBottom=0;whiteSpace=wrap;html=1;fontSize=15;fillColor=#dae8fc;strokeColor=#6c8ebf;" parent="WIyWlLk6GJQsqaUBKTNV-1" vertex="1">
          <mxGeometry x="724" y="118" width="230" height="58" as="geometry">
            <mxRectangle x="-720" y="-830" width="160" height="50" as="alternateBounds" />
          </mxGeometry>
        </mxCell>
        <mxCell id="JzHmCHcc4jUydCR1_Gb7-322" value="" style="line;strokeWidth=1;fillColor=none;align=left;verticalAlign=middle;spacingTop=-1;spacingLeft=3;spacingRight=3;rotatable=0;labelPosition=right;points=[];portConstraint=eastwest;strokeColor=inherit;" parent="JzHmCHcc4jUydCR1_Gb7-321" vertex="1">
          <mxGeometry y="50" width="230" height="8" as="geometry" />
        </mxCell>
        <mxCell id="JzHmCHcc4jUydCR1_Gb7-527" style="edgeStyle=orthogonalEdgeStyle;rounded=0;orthogonalLoop=1;jettySize=auto;html=1;endArrow=diamond;endFill=1;endSize=12;" parent="WIyWlLk6GJQsqaUBKTNV-1" source="JzHmCHcc4jUydCR1_Gb7-323" target="JzHmCHcc4jUydCR1_Gb7-63" edge="1">
          <mxGeometry relative="1" as="geometry">
            <Array as="points">
              <mxPoint x="670" y="98" />
              <mxPoint x="760" y="98" />
            </Array>
          </mxGeometry>
        </mxCell>
        <mxCell id="JzHmCHcc4jUydCR1_Gb7-323" value="CinemachineBrain&lt;br&gt;&amp;lt;&amp;lt;Component&amp;gt;&amp;gt;" style="swimlane;fontStyle=1;align=center;verticalAlign=top;childLayout=stackLayout;horizontal=1;startSize=50;horizontalStack=0;resizeParent=1;resizeParentMax=0;resizeLast=0;collapsible=1;marginBottom=0;whiteSpace=wrap;html=1;fontSize=15;fillColor=#dae8fc;strokeColor=#6c8ebf;" parent="WIyWlLk6GJQsqaUBKTNV-1" vertex="1">
          <mxGeometry x="570" y="230" width="220" height="58" as="geometry">
            <mxRectangle x="690" y="870" width="160" height="50" as="alternateBounds" />
          </mxGeometry>
        </mxCell>
        <mxCell id="JzHmCHcc4jUydCR1_Gb7-324" value="" style="line;strokeWidth=1;fillColor=none;align=left;verticalAlign=middle;spacingTop=-1;spacingLeft=3;spacingRight=3;rotatable=0;labelPosition=right;points=[];portConstraint=eastwest;strokeColor=inherit;" parent="JzHmCHcc4jUydCR1_Gb7-323" vertex="1">
          <mxGeometry y="50" width="220" height="8" as="geometry" />
        </mxCell>
        <mxCell id="h68TDxjQolyVrIVYv69o-411" style="edgeStyle=orthogonalEdgeStyle;rounded=0;orthogonalLoop=1;jettySize=auto;html=1;" edge="1" parent="WIyWlLk6GJQsqaUBKTNV-1" source="JzHmCHcc4jUydCR1_Gb7-376" target="JzHmCHcc4jUydCR1_Gb7-108">
          <mxGeometry relative="1" as="geometry" />
        </mxCell>
        <mxCell id="JzHmCHcc4jUydCR1_Gb7-376" value="Animator&lt;br style=&quot;font-size: 15px;&quot;&gt;&amp;lt;&amp;lt;Component&amp;gt;&amp;gt;" style="swimlane;fontStyle=1;align=center;verticalAlign=top;childLayout=stackLayout;horizontal=1;startSize=50;horizontalStack=0;resizeParent=1;resizeParentMax=0;resizeLast=0;collapsible=1;marginBottom=0;whiteSpace=wrap;html=1;fontSize=15;fillColor=#dae8fc;strokeColor=#6c8ebf;" parent="WIyWlLk6GJQsqaUBKTNV-1" vertex="1">
          <mxGeometry x="1790" y="-500" width="160" height="58" as="geometry">
            <mxRectangle x="690" y="870" width="160" height="50" as="alternateBounds" />
          </mxGeometry>
        </mxCell>
        <mxCell id="JzHmCHcc4jUydCR1_Gb7-377" value="" style="line;strokeWidth=1;fillColor=none;align=left;verticalAlign=middle;spacingTop=-1;spacingLeft=3;spacingRight=3;rotatable=0;labelPosition=right;points=[];portConstraint=eastwest;strokeColor=inherit;" parent="JzHmCHcc4jUydCR1_Gb7-376" vertex="1">
          <mxGeometry y="50" width="160" height="8" as="geometry" />
        </mxCell>
        <mxCell id="JzHmCHcc4jUydCR1_Gb7-494" style="edgeStyle=orthogonalEdgeStyle;rounded=0;orthogonalLoop=1;jettySize=auto;html=1;endArrow=diamond;endFill=1;endSize=12;" parent="WIyWlLk6GJQsqaUBKTNV-1" source="JzHmCHcc4jUydCR1_Gb7-488" target="JzHmCHcc4jUydCR1_Gb7-21" edge="1">
          <mxGeometry relative="1" as="geometry">
            <Array as="points">
              <mxPoint x="280" y="-379" />
              <mxPoint x="280" y="-379" />
            </Array>
          </mxGeometry>
        </mxCell>
        <mxCell id="JzHmCHcc4jUydCR1_Gb7-488" value="Animator&lt;br&gt;&amp;lt;&amp;lt;Component&amp;gt;&amp;gt;" style="swimlane;fontStyle=1;align=center;verticalAlign=top;childLayout=stackLayout;horizontal=1;startSize=50;horizontalStack=0;resizeParent=1;resizeParentMax=0;resizeLast=0;collapsible=1;marginBottom=0;whiteSpace=wrap;html=1;fontSize=15;fillColor=#dae8fc;strokeColor=#6c8ebf;" parent="WIyWlLk6GJQsqaUBKTNV-1" vertex="1">
          <mxGeometry x="20" y="-539" width="220" height="58" as="geometry">
            <mxRectangle x="640" y="-200" width="160" height="50" as="alternateBounds" />
          </mxGeometry>
        </mxCell>
        <mxCell id="JzHmCHcc4jUydCR1_Gb7-489" value="" style="line;strokeWidth=1;fillColor=none;align=left;verticalAlign=middle;spacingTop=-1;spacingLeft=3;spacingRight=3;rotatable=0;labelPosition=right;points=[];portConstraint=eastwest;strokeColor=inherit;" parent="JzHmCHcc4jUydCR1_Gb7-488" vertex="1">
          <mxGeometry y="50" width="220" height="8" as="geometry" />
        </mxCell>
        <mxCell id="JzHmCHcc4jUydCR1_Gb7-559" style="edgeStyle=orthogonalEdgeStyle;rounded=0;orthogonalLoop=1;jettySize=auto;html=1;endArrow=diamond;endFill=0;endSize=12;" parent="WIyWlLk6GJQsqaUBKTNV-1" source="JzHmCHcc4jUydCR1_Gb7-553" target="JzHmCHcc4jUydCR1_Gb7-77" edge="1">
          <mxGeometry relative="1" as="geometry" />
        </mxCell>
        <mxCell id="JzHmCHcc4jUydCR1_Gb7-553" value="Canvas&lt;br&gt;&amp;lt;&amp;lt;GameObject&amp;gt;&amp;gt; Canvas" style="swimlane;fontStyle=1;align=center;verticalAlign=top;childLayout=stackLayout;horizontal=1;startSize=50;horizontalStack=0;resizeParent=1;resizeParentMax=0;resizeLast=0;collapsible=1;marginBottom=0;whiteSpace=wrap;html=1;fontSize=15;fillColor=#d5e8d4;strokeColor=#82b366;" parent="WIyWlLk6GJQsqaUBKTNV-1" vertex="1">
          <mxGeometry x="1020" y="-292" width="220" height="188" as="geometry" />
        </mxCell>
        <mxCell id="JzHmCHcc4jUydCR1_Gb7-554" value="- MovementCanvas: Canvas" style="text;strokeColor=none;fillColor=none;align=left;verticalAlign=top;spacingLeft=4;spacingRight=4;overflow=hidden;rotatable=0;points=[[0,0.5],[1,0.5]];portConstraint=eastwest;whiteSpace=wrap;html=1;fontSize=15;" parent="JzHmCHcc4jUydCR1_Gb7-553" vertex="1">
          <mxGeometry y="50" width="220" height="26" as="geometry" />
        </mxCell>
        <mxCell id="JzHmCHcc4jUydCR1_Gb7-560" value="- TimerCanvas: Canvas" style="text;strokeColor=none;fillColor=none;align=left;verticalAlign=top;spacingLeft=4;spacingRight=4;overflow=hidden;rotatable=0;points=[[0,0.5],[1,0.5]];portConstraint=eastwest;whiteSpace=wrap;html=1;fontSize=15;" parent="JzHmCHcc4jUydCR1_Gb7-553" vertex="1">
          <mxGeometry y="76" width="220" height="26" as="geometry" />
        </mxCell>
        <mxCell id="JzHmCHcc4jUydCR1_Gb7-561" value="- LevelCanvas: Canvas" style="text;strokeColor=none;fillColor=none;align=left;verticalAlign=top;spacingLeft=4;spacingRight=4;overflow=hidden;rotatable=0;points=[[0,0.5],[1,0.5]];portConstraint=eastwest;whiteSpace=wrap;html=1;fontSize=15;" parent="JzHmCHcc4jUydCR1_Gb7-553" vertex="1">
          <mxGeometry y="102" width="220" height="26" as="geometry" />
        </mxCell>
        <mxCell id="JzHmCHcc4jUydCR1_Gb7-562" value="- ScoreboardCanvas: Canvas" style="text;strokeColor=none;fillColor=none;align=left;verticalAlign=top;spacingLeft=4;spacingRight=4;overflow=hidden;rotatable=0;points=[[0,0.5],[1,0.5]];portConstraint=eastwest;whiteSpace=wrap;html=1;fontSize=15;" parent="JzHmCHcc4jUydCR1_Gb7-553" vertex="1">
          <mxGeometry y="128" width="220" height="26" as="geometry" />
        </mxCell>
        <mxCell id="JzHmCHcc4jUydCR1_Gb7-563" value="- ChatCanvas: Canvas" style="text;strokeColor=none;fillColor=none;align=left;verticalAlign=top;spacingLeft=4;spacingRight=4;overflow=hidden;rotatable=0;points=[[0,0.5],[1,0.5]];portConstraint=eastwest;whiteSpace=wrap;html=1;fontSize=15;" parent="JzHmCHcc4jUydCR1_Gb7-553" vertex="1">
          <mxGeometry y="154" width="220" height="26" as="geometry" />
        </mxCell>
        <mxCell id="JzHmCHcc4jUydCR1_Gb7-557" value="" style="line;strokeWidth=1;fillColor=none;align=left;verticalAlign=middle;spacingTop=-1;spacingLeft=3;spacingRight=3;rotatable=0;labelPosition=right;points=[];portConstraint=eastwest;strokeColor=inherit;" parent="JzHmCHcc4jUydCR1_Gb7-553" vertex="1">
          <mxGeometry y="180" width="220" height="8" as="geometry" />
        </mxCell>
        <mxCell id="JzHmCHcc4jUydCR1_Gb7-566" style="edgeStyle=orthogonalEdgeStyle;rounded=0;orthogonalLoop=1;jettySize=auto;html=1;endArrow=diamondThin;endFill=1;endSize=12;jumpStyle=arc;strokeColor=default;jumpSize=14;" parent="WIyWlLk6GJQsqaUBKTNV-1" source="JzHmCHcc4jUydCR1_Gb7-564" target="JzHmCHcc4jUydCR1_Gb7-553" edge="1">
          <mxGeometry relative="1" as="geometry">
            <Array as="points">
              <mxPoint x="1130" y="-372" />
              <mxPoint x="1130" y="-372" />
            </Array>
          </mxGeometry>
        </mxCell>
        <mxCell id="JzHmCHcc4jUydCR1_Gb7-564" value="Canvas&lt;br&gt;&amp;lt;&amp;lt;Component&amp;gt;&amp;gt;" style="swimlane;fontStyle=1;align=center;verticalAlign=top;childLayout=stackLayout;horizontal=1;startSize=50;horizontalStack=0;resizeParent=1;resizeParentMax=0;resizeLast=0;collapsible=1;marginBottom=0;whiteSpace=wrap;html=1;fontSize=15;fillColor=#dae8fc;strokeColor=#6c8ebf;" parent="WIyWlLk6GJQsqaUBKTNV-1" vertex="1">
          <mxGeometry x="1020" y="-471" width="220" height="58" as="geometry">
            <mxRectangle x="640" y="-200" width="160" height="50" as="alternateBounds" />
          </mxGeometry>
        </mxCell>
        <mxCell id="JzHmCHcc4jUydCR1_Gb7-565" value="" style="line;strokeWidth=1;fillColor=none;align=left;verticalAlign=middle;spacingTop=-1;spacingLeft=3;spacingRight=3;rotatable=0;labelPosition=right;points=[];portConstraint=eastwest;strokeColor=inherit;" parent="JzHmCHcc4jUydCR1_Gb7-564" vertex="1">
          <mxGeometry y="50" width="220" height="8" as="geometry" />
        </mxCell>
        <mxCell id="JzHmCHcc4jUydCR1_Gb7-1295" value="PlayerScore&lt;br&gt;&amp;lt;&amp;lt;GameObject&amp;gt;&amp;gt; Panel" style="swimlane;fontStyle=1;align=center;verticalAlign=top;childLayout=stackLayout;horizontal=1;startSize=50;horizontalStack=0;resizeParent=1;resizeParentMax=0;resizeLast=0;collapsible=1;marginBottom=0;whiteSpace=wrap;html=1;fontSize=15;fillColor=#d5e8d4;strokeColor=#82b366;" parent="WIyWlLk6GJQsqaUBKTNV-1" vertex="1">
          <mxGeometry x="3230" y="-3362" width="220" height="136" as="geometry" />
        </mxCell>
        <mxCell id="JzHmCHcc4jUydCR1_Gb7-1296" value="- playerName: string" style="text;strokeColor=none;fillColor=none;align=left;verticalAlign=top;spacingLeft=4;spacingRight=4;overflow=hidden;rotatable=0;points=[[0,0.5],[1,0.5]];portConstraint=eastwest;whiteSpace=wrap;html=1;fontSize=15;" parent="JzHmCHcc4jUydCR1_Gb7-1295" vertex="1">
          <mxGeometry y="50" width="220" height="26" as="geometry" />
        </mxCell>
        <mxCell id="JzHmCHcc4jUydCR1_Gb7-1297" value="- kills: int" style="text;strokeColor=none;fillColor=none;align=left;verticalAlign=top;spacingLeft=4;spacingRight=4;overflow=hidden;rotatable=0;points=[[0,0.5],[1,0.5]];portConstraint=eastwest;whiteSpace=wrap;html=1;fontSize=15;" parent="JzHmCHcc4jUydCR1_Gb7-1295" vertex="1">
          <mxGeometry y="76" width="220" height="26" as="geometry" />
        </mxCell>
        <mxCell id="JzHmCHcc4jUydCR1_Gb7-1298" value="- crown: image (UI)" style="text;strokeColor=none;fillColor=none;align=left;verticalAlign=top;spacingLeft=4;spacingRight=4;overflow=hidden;rotatable=0;points=[[0,0.5],[1,0.5]];portConstraint=eastwest;whiteSpace=wrap;html=1;fontSize=15;" parent="JzHmCHcc4jUydCR1_Gb7-1295" vertex="1">
          <mxGeometry y="102" width="220" height="26" as="geometry" />
        </mxCell>
        <mxCell id="JzHmCHcc4jUydCR1_Gb7-1299" value="" style="line;strokeWidth=1;fillColor=none;align=left;verticalAlign=middle;spacingTop=-1;spacingLeft=3;spacingRight=3;rotatable=0;labelPosition=right;points=[];portConstraint=eastwest;strokeColor=inherit;" parent="JzHmCHcc4jUydCR1_Gb7-1295" vertex="1">
          <mxGeometry y="128" width="220" height="8" as="geometry" />
        </mxCell>
        <mxCell id="JzHmCHcc4jUydCR1_Gb7-1300" value="PhotonChatManager&lt;br&gt;&amp;lt;&amp;lt;MonoBehaviour, IChatClientListener&amp;gt;&amp;gt; Script" style="swimlane;fontStyle=1;align=center;verticalAlign=top;childLayout=stackLayout;horizontal=1;startSize=50;horizontalStack=0;resizeParent=1;resizeParentMax=0;resizeLast=0;collapsible=1;marginBottom=0;whiteSpace=wrap;html=1;fontSize=15;fillColor=#fff2cc;strokeColor=#d6b656;" parent="WIyWlLk6GJQsqaUBKTNV-1" vertex="1">
          <mxGeometry x="1520" y="-2816" width="370" height="396" as="geometry">
            <mxRectangle x="1520" y="-2816" width="380" height="50" as="alternateBounds" />
          </mxGeometry>
        </mxCell>
        <mxCell id="JzHmCHcc4jUydCR1_Gb7-1301" value="- playerName: string" style="text;strokeColor=none;fillColor=none;align=left;verticalAlign=top;spacingLeft=4;spacingRight=4;overflow=hidden;rotatable=0;points=[[0,0.5],[1,0.5]];portConstraint=eastwest;whiteSpace=wrap;html=1;fontSize=15;" parent="JzHmCHcc4jUydCR1_Gb7-1300" vertex="1">
          <mxGeometry y="50" width="370" height="26" as="geometry" />
        </mxCell>
        <mxCell id="JzHmCHcc4jUydCR1_Gb7-1302" value="- isConnected: bool" style="text;strokeColor=none;fillColor=none;align=left;verticalAlign=top;spacingLeft=4;spacingRight=4;overflow=hidden;rotatable=0;points=[[0,0.5],[1,0.5]];portConstraint=eastwest;whiteSpace=wrap;html=1;fontSize=15;" parent="JzHmCHcc4jUydCR1_Gb7-1300" vertex="1">
          <mxGeometry y="76" width="370" height="26" as="geometry" />
        </mxCell>
        <mxCell id="JzHmCHcc4jUydCR1_Gb7-1303" value="- chatClient: ChatClient" style="text;strokeColor=none;fillColor=none;align=left;verticalAlign=top;spacingLeft=4;spacingRight=4;overflow=hidden;rotatable=0;points=[[0,0.5],[1,0.5]];portConstraint=eastwest;whiteSpace=wrap;html=1;fontSize=15;" parent="JzHmCHcc4jUydCR1_Gb7-1300" vertex="1">
          <mxGeometry y="102" width="370" height="26" as="geometry" />
        </mxCell>
        <mxCell id="JzHmCHcc4jUydCR1_Gb7-1304" value="- chatPanel: GameObject" style="text;strokeColor=none;fillColor=none;align=left;verticalAlign=top;spacingLeft=4;spacingRight=4;overflow=hidden;rotatable=0;points=[[0,0.5],[1,0.5]];portConstraint=eastwest;whiteSpace=wrap;html=1;fontSize=15;" parent="JzHmCHcc4jUydCR1_Gb7-1300" vertex="1">
          <mxGeometry y="128" width="370" height="26" as="geometry" />
        </mxCell>
        <mxCell id="JzHmCHcc4jUydCR1_Gb7-1305" value="- chatDisplay: TextMeshProUGUI" style="text;strokeColor=none;fillColor=none;align=left;verticalAlign=top;spacingLeft=4;spacingRight=4;overflow=hidden;rotatable=0;points=[[0,0.5],[1,0.5]];portConstraint=eastwest;whiteSpace=wrap;html=1;fontSize=15;" parent="JzHmCHcc4jUydCR1_Gb7-1300" vertex="1">
          <mxGeometry y="154" width="370" height="26" as="geometry" />
        </mxCell>
        <mxCell id="JzHmCHcc4jUydCR1_Gb7-1306" value="- message: TextMeshProUGUI" style="text;strokeColor=none;fillColor=none;align=left;verticalAlign=top;spacingLeft=4;spacingRight=4;overflow=hidden;rotatable=0;points=[[0,0.5],[1,0.5]];portConstraint=eastwest;whiteSpace=wrap;html=1;fontSize=15;" parent="JzHmCHcc4jUydCR1_Gb7-1300" vertex="1">
          <mxGeometry y="180" width="370" height="26" as="geometry" />
        </mxCell>
        <mxCell id="JzHmCHcc4jUydCR1_Gb7-1307" value="- chatInput: TMP_InputField" style="text;strokeColor=none;fillColor=none;align=left;verticalAlign=top;spacingLeft=4;spacingRight=4;overflow=hidden;rotatable=0;points=[[0,0.5],[1,0.5]];portConstraint=eastwest;whiteSpace=wrap;html=1;fontSize=15;" parent="JzHmCHcc4jUydCR1_Gb7-1300" vertex="1">
          <mxGeometry y="206" width="370" height="26" as="geometry" />
        </mxCell>
        <mxCell id="JzHmCHcc4jUydCR1_Gb7-1308" value="" style="line;strokeWidth=1;fillColor=none;align=left;verticalAlign=middle;spacingTop=-1;spacingLeft=3;spacingRight=3;rotatable=0;labelPosition=right;points=[];portConstraint=eastwest;strokeColor=inherit;" parent="JzHmCHcc4jUydCR1_Gb7-1300" vertex="1">
          <mxGeometry y="232" width="370" height="8" as="geometry" />
        </mxCell>
        <mxCell id="JzHmCHcc4jUydCR1_Gb7-1309" value="-Start()" style="text;strokeColor=none;fillColor=none;align=left;verticalAlign=top;spacingLeft=4;spacingRight=4;overflow=hidden;rotatable=0;points=[[0,0.5],[1,0.5]];portConstraint=eastwest;whiteSpace=wrap;html=1;fontSize=15;" parent="JzHmCHcc4jUydCR1_Gb7-1300" vertex="1">
          <mxGeometry y="240" width="370" height="26" as="geometry" />
        </mxCell>
        <mxCell id="JzHmCHcc4jUydCR1_Gb7-1310" value="-Update()" style="text;strokeColor=none;fillColor=none;align=left;verticalAlign=top;spacingLeft=4;spacingRight=4;overflow=hidden;rotatable=0;points=[[0,0.5],[1,0.5]];portConstraint=eastwest;whiteSpace=wrap;html=1;fontSize=15;" parent="JzHmCHcc4jUydCR1_Gb7-1300" vertex="1">
          <mxGeometry y="266" width="370" height="26" as="geometry" />
        </mxCell>
        <mxCell id="JzHmCHcc4jUydCR1_Gb7-1311" value="+OnConnected()" style="text;strokeColor=none;fillColor=none;align=left;verticalAlign=top;spacingLeft=4;spacingRight=4;overflow=hidden;rotatable=0;points=[[0,0.5],[1,0.5]];portConstraint=eastwest;whiteSpace=wrap;html=1;fontSize=15;" parent="JzHmCHcc4jUydCR1_Gb7-1300" vertex="1">
          <mxGeometry y="292" width="370" height="26" as="geometry" />
        </mxCell>
        <mxCell id="JzHmCHcc4jUydCR1_Gb7-1312" value="+SubmitPublicChatOnClick()" style="text;strokeColor=none;fillColor=none;align=left;verticalAlign=top;spacingLeft=4;spacingRight=4;overflow=hidden;rotatable=0;points=[[0,0.5],[1,0.5]];portConstraint=eastwest;whiteSpace=wrap;html=1;fontSize=15;" parent="JzHmCHcc4jUydCR1_Gb7-1300" vertex="1">
          <mxGeometry y="318" width="370" height="26" as="geometry" />
        </mxCell>
        <mxCell id="JzHmCHcc4jUydCR1_Gb7-1313" value="+OnChatStateChange(ChatState state)" style="text;strokeColor=none;fillColor=none;align=left;verticalAlign=top;spacingLeft=4;spacingRight=4;overflow=hidden;rotatable=0;points=[[0,0.5],[1,0.5]];portConstraint=eastwest;whiteSpace=wrap;html=1;fontSize=15;" parent="JzHmCHcc4jUydCR1_Gb7-1300" vertex="1">
          <mxGeometry y="344" width="370" height="26" as="geometry" />
        </mxCell>
        <mxCell id="JzHmCHcc4jUydCR1_Gb7-1314" value="+OnGetMessages(string channelName)" style="text;strokeColor=none;fillColor=none;align=left;verticalAlign=top;spacingLeft=4;spacingRight=4;overflow=hidden;rotatable=0;points=[[0,0.5],[1,0.5]];portConstraint=eastwest;whiteSpace=wrap;html=1;fontSize=15;" parent="JzHmCHcc4jUydCR1_Gb7-1300" vertex="1">
          <mxGeometry y="370" width="370" height="26" as="geometry" />
        </mxCell>
        <mxCell id="JzHmCHcc4jUydCR1_Gb7-1370" value="AudioSource&lt;br style=&quot;font-size: 15px;&quot;&gt;&amp;lt;&amp;lt;Component&amp;gt;&amp;gt;" style="swimlane;fontStyle=1;align=center;verticalAlign=top;childLayout=stackLayout;horizontal=1;startSize=50;horizontalStack=0;resizeParent=1;resizeParentMax=0;resizeLast=0;collapsible=1;marginBottom=0;whiteSpace=wrap;html=1;fontSize=15;fillColor=#dae8fc;strokeColor=#6c8ebf;" parent="WIyWlLk6GJQsqaUBKTNV-1" vertex="1">
          <mxGeometry x="2800" y="-3143" width="220" height="58" as="geometry">
            <mxRectangle x="690" y="870" width="160" height="50" as="alternateBounds" />
          </mxGeometry>
        </mxCell>
        <mxCell id="JzHmCHcc4jUydCR1_Gb7-1371" value="" style="line;strokeWidth=1;fillColor=none;align=left;verticalAlign=middle;spacingTop=-1;spacingLeft=3;spacingRight=3;rotatable=0;labelPosition=right;points=[];portConstraint=eastwest;strokeColor=inherit;" parent="JzHmCHcc4jUydCR1_Gb7-1370" vertex="1">
          <mxGeometry y="50" width="220" height="8" as="geometry" />
        </mxCell>
        <mxCell id="JzHmCHcc4jUydCR1_Gb7-1374" value="Transform&lt;br style=&quot;font-size: 15px;&quot;&gt;&amp;lt;&amp;lt;Component&amp;gt;&amp;gt;" style="swimlane;fontStyle=1;align=center;verticalAlign=top;childLayout=stackLayout;horizontal=1;startSize=50;horizontalStack=0;resizeParent=1;resizeParentMax=0;resizeLast=0;collapsible=1;marginBottom=0;whiteSpace=wrap;html=1;fontSize=15;fillColor=#dae8fc;strokeColor=#6c8ebf;" parent="WIyWlLk6GJQsqaUBKTNV-1" vertex="1">
          <mxGeometry x="2800" y="-3443" width="220" height="58" as="geometry">
            <mxRectangle x="690" y="870" width="160" height="50" as="alternateBounds" />
          </mxGeometry>
        </mxCell>
        <mxCell id="JzHmCHcc4jUydCR1_Gb7-1375" value="" style="line;strokeWidth=1;fillColor=none;align=left;verticalAlign=middle;spacingTop=-1;spacingLeft=3;spacingRight=3;rotatable=0;labelPosition=right;points=[];portConstraint=eastwest;strokeColor=inherit;" parent="JzHmCHcc4jUydCR1_Gb7-1374" vertex="1">
          <mxGeometry y="50" width="220" height="8" as="geometry" />
        </mxCell>
        <mxCell id="JzHmCHcc4jUydCR1_Gb7-1376" value="Camera&lt;br style=&quot;font-size: 15px;&quot;&gt;&amp;lt;&amp;lt;Component&amp;gt;&amp;gt;" style="swimlane;fontStyle=1;align=center;verticalAlign=top;childLayout=stackLayout;horizontal=1;startSize=50;horizontalStack=0;resizeParent=1;resizeParentMax=0;resizeLast=0;collapsible=1;marginBottom=0;whiteSpace=wrap;html=1;fontSize=15;fillColor=#dae8fc;strokeColor=#6c8ebf;" parent="WIyWlLk6GJQsqaUBKTNV-1" vertex="1">
          <mxGeometry x="2800" y="-3523" width="220" height="58" as="geometry">
            <mxRectangle x="690" y="870" width="160" height="50" as="alternateBounds" />
          </mxGeometry>
        </mxCell>
        <mxCell id="JzHmCHcc4jUydCR1_Gb7-1377" value="" style="line;strokeWidth=1;fillColor=none;align=left;verticalAlign=middle;spacingTop=-1;spacingLeft=3;spacingRight=3;rotatable=0;labelPosition=right;points=[];portConstraint=eastwest;strokeColor=inherit;" parent="JzHmCHcc4jUydCR1_Gb7-1376" vertex="1">
          <mxGeometry y="50" width="220" height="8" as="geometry" />
        </mxCell>
        <mxCell id="JzHmCHcc4jUydCR1_Gb7-1378" value="Scoreboard&lt;br&gt;&amp;lt;&amp;lt;GameObject&amp;gt;&amp;gt; Panel" style="swimlane;fontStyle=1;align=center;verticalAlign=top;childLayout=stackLayout;horizontal=1;startSize=50;horizontalStack=0;resizeParent=1;resizeParentMax=0;resizeLast=0;collapsible=1;marginBottom=0;whiteSpace=wrap;html=1;fontSize=15;fillColor=#d5e8d4;strokeColor=#82b366;" parent="WIyWlLk6GJQsqaUBKTNV-1" vertex="1">
          <mxGeometry x="3480" y="-3362" width="220" height="136" as="geometry" />
        </mxCell>
        <mxCell id="JzHmCHcc4jUydCR1_Gb7-1379" value="- playerName: string" style="text;strokeColor=none;fillColor=none;align=left;verticalAlign=top;spacingLeft=4;spacingRight=4;overflow=hidden;rotatable=0;points=[[0,0.5],[1,0.5]];portConstraint=eastwest;whiteSpace=wrap;html=1;fontSize=15;" parent="JzHmCHcc4jUydCR1_Gb7-1378" vertex="1">
          <mxGeometry y="50" width="220" height="26" as="geometry" />
        </mxCell>
        <mxCell id="JzHmCHcc4jUydCR1_Gb7-1380" value="- kills: int" style="text;strokeColor=none;fillColor=none;align=left;verticalAlign=top;spacingLeft=4;spacingRight=4;overflow=hidden;rotatable=0;points=[[0,0.5],[1,0.5]];portConstraint=eastwest;whiteSpace=wrap;html=1;fontSize=15;" parent="JzHmCHcc4jUydCR1_Gb7-1378" vertex="1">
          <mxGeometry y="76" width="220" height="26" as="geometry" />
        </mxCell>
        <mxCell id="JzHmCHcc4jUydCR1_Gb7-1381" value="- crown: image (UI)" style="text;strokeColor=none;fillColor=none;align=left;verticalAlign=top;spacingLeft=4;spacingRight=4;overflow=hidden;rotatable=0;points=[[0,0.5],[1,0.5]];portConstraint=eastwest;whiteSpace=wrap;html=1;fontSize=15;" parent="JzHmCHcc4jUydCR1_Gb7-1378" vertex="1">
          <mxGeometry y="102" width="220" height="26" as="geometry" />
        </mxCell>
        <mxCell id="JzHmCHcc4jUydCR1_Gb7-1382" value="" style="line;strokeWidth=1;fillColor=none;align=left;verticalAlign=middle;spacingTop=-1;spacingLeft=3;spacingRight=3;rotatable=0;labelPosition=right;points=[];portConstraint=eastwest;strokeColor=inherit;" parent="JzHmCHcc4jUydCR1_Gb7-1378" vertex="1">
          <mxGeometry y="128" width="220" height="8" as="geometry" />
        </mxCell>
        <mxCell id="h68TDxjQolyVrIVYv69o-67" style="edgeStyle=orthogonalEdgeStyle;rounded=0;orthogonalLoop=1;jettySize=auto;html=1;endArrow=diamond;endFill=1;endSize=12;jumpStyle=arc;jumpSize=11;" edge="1" parent="WIyWlLk6GJQsqaUBKTNV-1" source="JzHmCHcc4jUydCR1_Gb7-1387" target="JzHmCHcc4jUydCR1_Gb7-94">
          <mxGeometry relative="1" as="geometry">
            <Array as="points">
              <mxPoint x="560" y="-230" />
            </Array>
          </mxGeometry>
        </mxCell>
        <mxCell id="h68TDxjQolyVrIVYv69o-436" style="edgeStyle=orthogonalEdgeStyle;rounded=0;orthogonalLoop=1;jettySize=auto;html=1;endArrow=diamond;endFill=1;endSize=13;jumpStyle=arc;jumpSize=10;" edge="1" parent="WIyWlLk6GJQsqaUBKTNV-1" source="JzHmCHcc4jUydCR1_Gb7-1387" target="JzHmCHcc4jUydCR1_Gb7-97">
          <mxGeometry relative="1" as="geometry">
            <Array as="points">
              <mxPoint x="620" y="-230" />
              <mxPoint x="620" y="181" />
            </Array>
          </mxGeometry>
        </mxCell>
        <mxCell id="JzHmCHcc4jUydCR1_Gb7-1387" value="PhotonView&lt;br&gt;&amp;lt;&amp;lt;MonoBehaviour&amp;gt;&amp;gt;Script" style="swimlane;fontStyle=1;align=center;verticalAlign=top;childLayout=stackLayout;horizontal=1;startSize=50;horizontalStack=0;resizeParent=1;resizeParentMax=0;resizeLast=0;collapsible=1;marginBottom=0;whiteSpace=wrap;html=1;fontSize=15;fillColor=#fff2cc;strokeColor=#d6b656;" parent="WIyWlLk6GJQsqaUBKTNV-1" vertex="1">
          <mxGeometry x="724" y="-259" width="220" height="58" as="geometry">
            <mxRectangle x="530" y="-137" width="160" height="50" as="alternateBounds" />
          </mxGeometry>
        </mxCell>
        <mxCell id="JzHmCHcc4jUydCR1_Gb7-1388" value="" style="line;strokeWidth=1;fillColor=none;align=left;verticalAlign=middle;spacingTop=-1;spacingLeft=3;spacingRight=3;rotatable=0;labelPosition=right;points=[];portConstraint=eastwest;strokeColor=inherit;" parent="JzHmCHcc4jUydCR1_Gb7-1387" vertex="1">
          <mxGeometry y="50" width="220" height="8" as="geometry" />
        </mxCell>
        <mxCell id="JzHmCHcc4jUydCR1_Gb7-1393" style="edgeStyle=orthogonalEdgeStyle;rounded=0;orthogonalLoop=1;jettySize=auto;html=1;endArrow=none;endFill=0;" parent="WIyWlLk6GJQsqaUBKTNV-1" source="JzHmCHcc4jUydCR1_Gb7-1394" target="JzHmCHcc4jUydCR1_Gb7-1300" edge="1">
          <mxGeometry relative="1" as="geometry" />
        </mxCell>
        <mxCell id="JzHmCHcc4jUydCR1_Gb7-1394" value="ChatClient&lt;br&gt;&amp;lt;&amp;lt;IPhotonPeerListener&amp;gt;&amp;gt; Script" style="swimlane;fontStyle=1;align=center;verticalAlign=top;childLayout=stackLayout;horizontal=1;startSize=50;horizontalStack=0;resizeParent=1;resizeParentMax=0;resizeLast=0;collapsible=1;marginBottom=0;whiteSpace=wrap;html=1;fontSize=15;" parent="WIyWlLk6GJQsqaUBKTNV-1" vertex="1">
          <mxGeometry x="1568" y="-2338" width="274" height="58" as="geometry">
            <mxRectangle x="883" y="-1820" width="380" height="50" as="alternateBounds" />
          </mxGeometry>
        </mxCell>
        <mxCell id="JzHmCHcc4jUydCR1_Gb7-1395" value="" style="line;strokeWidth=1;fillColor=none;align=left;verticalAlign=middle;spacingTop=-1;spacingLeft=3;spacingRight=3;rotatable=0;labelPosition=right;points=[];portConstraint=eastwest;strokeColor=inherit;" parent="JzHmCHcc4jUydCR1_Gb7-1394" vertex="1">
          <mxGeometry y="50" width="274" height="8" as="geometry" />
        </mxCell>
        <mxCell id="h68TDxjQolyVrIVYv69o-5" value="Player" style="swimlane;fontStyle=1;align=center;verticalAlign=middle;childLayout=stackLayout;horizontal=1;startSize=38;horizontalStack=0;resizeParent=1;resizeParentMax=0;resizeLast=0;collapsible=1;marginBottom=0;whiteSpace=wrap;html=1;fontSize=15;fillColor=#f5f5f5;fontColor=#333333;strokeColor=#666666;gradientColor=none;" vertex="1" parent="WIyWlLk6GJQsqaUBKTNV-1">
          <mxGeometry x="-50" y="-2518" width="220" height="46" as="geometry">
            <mxRectangle x="800" y="12" width="160" height="50" as="alternateBounds" />
          </mxGeometry>
        </mxCell>
        <mxCell id="h68TDxjQolyVrIVYv69o-10" value="" style="line;strokeWidth=1;fillColor=none;align=left;verticalAlign=middle;spacingTop=-1;spacingLeft=3;spacingRight=3;rotatable=0;labelPosition=right;points=[];portConstraint=eastwest;strokeColor=inherit;" vertex="1" parent="h68TDxjQolyVrIVYv69o-5">
          <mxGeometry y="38" width="220" height="8" as="geometry" />
        </mxCell>
        <mxCell id="h68TDxjQolyVrIVYv69o-13" style="edgeStyle=orthogonalEdgeStyle;rounded=0;orthogonalLoop=1;jettySize=auto;html=1;endArrow=diamond;endFill=1;endSize=12;" edge="1" parent="WIyWlLk6GJQsqaUBKTNV-1" source="h68TDxjQolyVrIVYv69o-11" target="JzHmCHcc4jUydCR1_Gb7-21">
          <mxGeometry relative="1" as="geometry">
            <Array as="points">
              <mxPoint x="280" y="-432" />
            </Array>
          </mxGeometry>
        </mxCell>
        <mxCell id="h68TDxjQolyVrIVYv69o-11" value="Transform&lt;br&gt;&amp;lt;&amp;lt;Component&amp;gt;&amp;gt;" style="swimlane;fontStyle=1;align=center;verticalAlign=top;childLayout=stackLayout;horizontal=1;startSize=50;horizontalStack=0;resizeParent=1;resizeParentMax=0;resizeLast=0;collapsible=1;marginBottom=0;whiteSpace=wrap;html=1;fontSize=15;fillColor=#dae8fc;strokeColor=#6c8ebf;" vertex="1" parent="WIyWlLk6GJQsqaUBKTNV-1">
          <mxGeometry x="20" y="-461" width="220" height="58" as="geometry">
            <mxRectangle x="640" y="-200" width="160" height="50" as="alternateBounds" />
          </mxGeometry>
        </mxCell>
        <mxCell id="h68TDxjQolyVrIVYv69o-12" value="" style="line;strokeWidth=1;fillColor=none;align=left;verticalAlign=middle;spacingTop=-1;spacingLeft=3;spacingRight=3;rotatable=0;labelPosition=right;points=[];portConstraint=eastwest;strokeColor=inherit;" vertex="1" parent="h68TDxjQolyVrIVYv69o-11">
          <mxGeometry y="50" width="220" height="8" as="geometry" />
        </mxCell>
        <mxCell id="h68TDxjQolyVrIVYv69o-28" value="Avatar&lt;br style=&quot;font-size: 15px;&quot;&gt;&amp;lt;&amp;lt;GameObject&amp;gt;&amp;gt;" style="swimlane;fontStyle=1;align=center;verticalAlign=top;childLayout=stackLayout;horizontal=1;startSize=50;horizontalStack=0;resizeParent=1;resizeParentMax=0;resizeLast=0;collapsible=1;marginBottom=0;whiteSpace=wrap;html=1;fontSize=15;fillColor=#d5e8d4;strokeColor=#82b366;" vertex="1" parent="WIyWlLk6GJQsqaUBKTNV-1">
          <mxGeometry x="2280" y="-2715" width="220" height="58" as="geometry">
            <mxRectangle x="800" y="12" width="160" height="50" as="alternateBounds" />
          </mxGeometry>
        </mxCell>
        <mxCell id="h68TDxjQolyVrIVYv69o-33" value="" style="line;strokeWidth=1;fillColor=none;align=left;verticalAlign=middle;spacingTop=-1;spacingLeft=3;spacingRight=3;rotatable=0;labelPosition=right;points=[];portConstraint=eastwest;strokeColor=inherit;" vertex="1" parent="h68TDxjQolyVrIVYv69o-28">
          <mxGeometry y="50" width="220" height="8" as="geometry" />
        </mxCell>
        <mxCell id="h68TDxjQolyVrIVYv69o-34" value="MixamoRig:Hips&lt;br style=&quot;font-size: 15px;&quot;&gt;&amp;lt;&amp;lt;GameObject&amp;gt;&amp;gt;" style="swimlane;fontStyle=1;align=center;verticalAlign=top;childLayout=stackLayout;horizontal=1;startSize=50;horizontalStack=0;resizeParent=1;resizeParentMax=0;resizeLast=0;collapsible=1;marginBottom=0;whiteSpace=wrap;html=1;fontSize=15;fillColor=#d5e8d4;strokeColor=#82b366;" vertex="1" parent="WIyWlLk6GJQsqaUBKTNV-1">
          <mxGeometry x="2160" y="-2901" width="220" height="58" as="geometry">
            <mxRectangle x="800" y="12" width="160" height="50" as="alternateBounds" />
          </mxGeometry>
        </mxCell>
        <mxCell id="h68TDxjQolyVrIVYv69o-35" value="" style="line;strokeWidth=1;fillColor=none;align=left;verticalAlign=middle;spacingTop=-1;spacingLeft=3;spacingRight=3;rotatable=0;labelPosition=right;points=[];portConstraint=eastwest;strokeColor=inherit;" vertex="1" parent="h68TDxjQolyVrIVYv69o-34">
          <mxGeometry y="50" width="220" height="8" as="geometry" />
        </mxCell>
        <mxCell id="h68TDxjQolyVrIVYv69o-36" value="MainCamera&lt;br style=&quot;font-size: 15px;&quot;&gt;&amp;lt;&amp;lt;GameObject&amp;gt;&amp;gt;" style="swimlane;fontStyle=1;align=center;verticalAlign=top;childLayout=stackLayout;horizontal=1;startSize=50;horizontalStack=0;resizeParent=1;resizeParentMax=0;resizeLast=0;collapsible=1;marginBottom=0;whiteSpace=wrap;html=1;fontSize=15;fillColor=#d5e8d4;strokeColor=#82b366;" vertex="1" parent="WIyWlLk6GJQsqaUBKTNV-1">
          <mxGeometry x="2830" y="-2850" width="220" height="58" as="geometry">
            <mxRectangle x="800" y="12" width="160" height="50" as="alternateBounds" />
          </mxGeometry>
        </mxCell>
        <mxCell id="h68TDxjQolyVrIVYv69o-37" value="" style="line;strokeWidth=1;fillColor=none;align=left;verticalAlign=middle;spacingTop=-1;spacingLeft=3;spacingRight=3;rotatable=0;labelPosition=right;points=[];portConstraint=eastwest;strokeColor=inherit;" vertex="1" parent="h68TDxjQolyVrIVYv69o-36">
          <mxGeometry y="50" width="220" height="8" as="geometry" />
        </mxCell>
        <mxCell id="h68TDxjQolyVrIVYv69o-38" value="Camera&lt;br style=&quot;font-size: 15px;&quot;&gt;&amp;lt;&amp;lt;Component&amp;gt;&amp;gt;" style="swimlane;fontStyle=1;align=center;verticalAlign=top;childLayout=stackLayout;horizontal=1;startSize=50;horizontalStack=0;resizeParent=1;resizeParentMax=0;resizeLast=0;collapsible=1;marginBottom=0;whiteSpace=wrap;html=1;fontSize=15;fillColor=#dae8fc;strokeColor=#6c8ebf;" vertex="1" parent="WIyWlLk6GJQsqaUBKTNV-1">
          <mxGeometry x="3080" y="-2758" width="220" height="58" as="geometry">
            <mxRectangle x="800" y="12" width="160" height="50" as="alternateBounds" />
          </mxGeometry>
        </mxCell>
        <mxCell id="h68TDxjQolyVrIVYv69o-39" value="" style="line;strokeWidth=1;fillColor=none;align=left;verticalAlign=middle;spacingTop=-1;spacingLeft=3;spacingRight=3;rotatable=0;labelPosition=right;points=[];portConstraint=eastwest;strokeColor=inherit;" vertex="1" parent="h68TDxjQolyVrIVYv69o-38">
          <mxGeometry y="50" width="220" height="8" as="geometry" />
        </mxCell>
        <mxCell id="h68TDxjQolyVrIVYv69o-40" value="CinemachineVirtualCamera&lt;br&gt;&amp;lt;&amp;lt;Component&amp;gt;&amp;gt;" style="swimlane;fontStyle=1;align=center;verticalAlign=top;childLayout=stackLayout;horizontal=1;startSize=50;horizontalStack=0;resizeParent=1;resizeParentMax=0;resizeLast=0;collapsible=1;marginBottom=0;whiteSpace=wrap;html=1;fontSize=15;fillColor=#dae8fc;strokeColor=#6c8ebf;" vertex="1" parent="WIyWlLk6GJQsqaUBKTNV-1">
          <mxGeometry x="3080" y="-2914" width="230" height="58" as="geometry">
            <mxRectangle x="-720" y="-830" width="160" height="50" as="alternateBounds" />
          </mxGeometry>
        </mxCell>
        <mxCell id="h68TDxjQolyVrIVYv69o-41" value="" style="line;strokeWidth=1;fillColor=none;align=left;verticalAlign=middle;spacingTop=-1;spacingLeft=3;spacingRight=3;rotatable=0;labelPosition=right;points=[];portConstraint=eastwest;strokeColor=inherit;" vertex="1" parent="h68TDxjQolyVrIVYv69o-40">
          <mxGeometry y="50" width="230" height="8" as="geometry" />
        </mxCell>
        <mxCell id="h68TDxjQolyVrIVYv69o-42" value="CinemachineBrain&lt;br&gt;&amp;lt;&amp;lt;Component&amp;gt;&amp;gt;" style="swimlane;fontStyle=1;align=center;verticalAlign=top;childLayout=stackLayout;horizontal=1;startSize=50;horizontalStack=0;resizeParent=1;resizeParentMax=0;resizeLast=0;collapsible=1;marginBottom=0;whiteSpace=wrap;html=1;fontSize=15;fillColor=#dae8fc;strokeColor=#6c8ebf;" vertex="1" parent="WIyWlLk6GJQsqaUBKTNV-1">
          <mxGeometry x="3080" y="-2832" width="220" height="58" as="geometry">
            <mxRectangle x="690" y="870" width="160" height="50" as="alternateBounds" />
          </mxGeometry>
        </mxCell>
        <mxCell id="h68TDxjQolyVrIVYv69o-43" value="" style="line;strokeWidth=1;fillColor=none;align=left;verticalAlign=middle;spacingTop=-1;spacingLeft=3;spacingRight=3;rotatable=0;labelPosition=right;points=[];portConstraint=eastwest;strokeColor=inherit;" vertex="1" parent="h68TDxjQolyVrIVYv69o-42">
          <mxGeometry y="50" width="220" height="8" as="geometry" />
        </mxCell>
        <mxCell id="h68TDxjQolyVrIVYv69o-102" style="edgeStyle=orthogonalEdgeStyle;rounded=0;orthogonalLoop=1;jettySize=auto;html=1;endArrow=diamond;endFill=0;endSize=12;" edge="1" parent="WIyWlLk6GJQsqaUBKTNV-1" source="h68TDxjQolyVrIVYv69o-49" target="h68TDxjQolyVrIVYv69o-51">
          <mxGeometry relative="1" as="geometry" />
        </mxCell>
        <mxCell id="h68TDxjQolyVrIVYv69o-49" value="Terrain&lt;br style=&quot;font-size: 15px;&quot;&gt;&amp;lt;&amp;lt;GameObject&amp;gt;&amp;gt;" style="swimlane;fontStyle=1;align=center;verticalAlign=top;childLayout=stackLayout;horizontal=1;startSize=50;horizontalStack=0;resizeParent=1;resizeParentMax=0;resizeLast=0;collapsible=1;marginBottom=0;whiteSpace=wrap;html=1;fontSize=15;fillColor=#d5e8d4;strokeColor=#82b366;" vertex="1" parent="WIyWlLk6GJQsqaUBKTNV-1">
          <mxGeometry x="2590" y="-2880" width="220" height="58" as="geometry">
            <mxRectangle x="690" y="870" width="160" height="50" as="alternateBounds" />
          </mxGeometry>
        </mxCell>
        <mxCell id="h68TDxjQolyVrIVYv69o-50" value="" style="line;strokeWidth=1;fillColor=none;align=left;verticalAlign=middle;spacingTop=-1;spacingLeft=3;spacingRight=3;rotatable=0;labelPosition=right;points=[];portConstraint=eastwest;strokeColor=inherit;" vertex="1" parent="h68TDxjQolyVrIVYv69o-49">
          <mxGeometry y="50" width="220" height="8" as="geometry" />
        </mxCell>
        <mxCell id="h68TDxjQolyVrIVYv69o-51" value="Map&lt;br&gt;&amp;lt;&amp;lt;Scene&amp;gt;&amp;gt;" style="swimlane;fontStyle=1;align=center;verticalAlign=top;childLayout=stackLayout;horizontal=1;startSize=50;horizontalStack=0;resizeParent=1;resizeParentMax=0;resizeLast=0;collapsible=1;marginBottom=0;whiteSpace=wrap;html=1;fontSize=15;" vertex="1" parent="WIyWlLk6GJQsqaUBKTNV-1">
          <mxGeometry x="2570" y="-3090" width="220" height="110" as="geometry" />
        </mxCell>
        <mxCell id="h68TDxjQolyVrIVYv69o-52" value="+ name: string" style="text;strokeColor=none;fillColor=none;align=left;verticalAlign=top;spacingLeft=4;spacingRight=4;overflow=hidden;rotatable=0;points=[[0,0.5],[1,0.5]];portConstraint=eastwest;whiteSpace=wrap;html=1;" vertex="1" parent="h68TDxjQolyVrIVYv69o-51">
          <mxGeometry y="50" width="220" height="26" as="geometry" />
        </mxCell>
        <mxCell id="h68TDxjQolyVrIVYv69o-53" value="+ num: int" style="text;strokeColor=none;fillColor=none;align=left;verticalAlign=top;spacingLeft=4;spacingRight=4;overflow=hidden;rotatable=0;points=[[0,0.5],[1,0.5]];portConstraint=eastwest;whiteSpace=wrap;html=1;" vertex="1" parent="h68TDxjQolyVrIVYv69o-51">
          <mxGeometry y="76" width="220" height="26" as="geometry" />
        </mxCell>
        <mxCell id="h68TDxjQolyVrIVYv69o-54" value="" style="line;strokeWidth=1;fillColor=none;align=left;verticalAlign=middle;spacingTop=-1;spacingLeft=3;spacingRight=3;rotatable=0;labelPosition=right;points=[];portConstraint=eastwest;strokeColor=inherit;" vertex="1" parent="h68TDxjQolyVrIVYv69o-51">
          <mxGeometry y="102" width="220" height="8" as="geometry" />
        </mxCell>
        <mxCell id="h68TDxjQolyVrIVYv69o-390" style="edgeStyle=orthogonalEdgeStyle;rounded=0;orthogonalLoop=1;jettySize=auto;html=1;endArrow=none;endFill=0;shadow=0;" edge="1" parent="WIyWlLk6GJQsqaUBKTNV-1" source="h68TDxjQolyVrIVYv69o-68" target="h68TDxjQolyVrIVYv69o-5">
          <mxGeometry relative="1" as="geometry" />
        </mxCell>
        <mxCell id="h68TDxjQolyVrIVYv69o-391" value="&lt;font style=&quot;font-size: 17px;&quot;&gt;Attack&lt;/font&gt;" style="edgeLabel;html=1;align=center;verticalAlign=middle;resizable=0;points=[];" vertex="1" connectable="0" parent="h68TDxjQolyVrIVYv69o-390">
          <mxGeometry x="-0.2203" y="1" relative="1" as="geometry">
            <mxPoint y="-15" as="offset" />
          </mxGeometry>
        </mxCell>
        <mxCell id="h68TDxjQolyVrIVYv69o-68" value="Enemy" style="swimlane;fontStyle=1;align=center;verticalAlign=middle;childLayout=stackLayout;horizontal=1;startSize=38;horizontalStack=0;resizeParent=1;resizeParentMax=0;resizeLast=0;collapsible=1;marginBottom=0;whiteSpace=wrap;html=1;fontSize=15;fillColor=#f5f5f5;strokeColor=#666666;fontColor=#333333;" vertex="1" parent="WIyWlLk6GJQsqaUBKTNV-1">
          <mxGeometry x="-50" y="-2338" width="220" height="46" as="geometry">
            <mxRectangle x="975" y="457" width="160" height="50" as="alternateBounds" />
          </mxGeometry>
        </mxCell>
        <mxCell id="h68TDxjQolyVrIVYv69o-71" value="" style="line;strokeWidth=1;fillColor=none;align=left;verticalAlign=middle;spacingTop=-1;spacingLeft=3;spacingRight=3;rotatable=0;labelPosition=right;points=[];portConstraint=eastwest;strokeColor=inherit;" vertex="1" parent="h68TDxjQolyVrIVYv69o-68">
          <mxGeometry y="38" width="220" height="8" as="geometry" />
        </mxCell>
        <mxCell id="h68TDxjQolyVrIVYv69o-387" style="edgeStyle=orthogonalEdgeStyle;rounded=0;orthogonalLoop=1;jettySize=auto;html=1;" edge="1" parent="WIyWlLk6GJQsqaUBKTNV-1" source="h68TDxjQolyVrIVYv69o-126" target="h68TDxjQolyVrIVYv69o-181">
          <mxGeometry relative="1" as="geometry">
            <Array as="points">
              <mxPoint x="-510" y="-2541" />
              <mxPoint x="-510" y="-2463" />
            </Array>
          </mxGeometry>
        </mxCell>
        <mxCell id="h68TDxjQolyVrIVYv69o-126" value="Transform&lt;br style=&quot;font-size: 15px;&quot;&gt;&amp;lt;&amp;lt;Component&amp;gt;&amp;gt;" style="swimlane;fontStyle=1;align=center;verticalAlign=top;childLayout=stackLayout;horizontal=1;startSize=50;horizontalStack=0;resizeParent=1;resizeParentMax=0;resizeLast=0;collapsible=1;marginBottom=0;whiteSpace=wrap;html=1;fontSize=15;fillColor=#dae8fc;strokeColor=#6c8ebf;" vertex="1" parent="WIyWlLk6GJQsqaUBKTNV-1">
          <mxGeometry x="-770" y="-2570" width="220" height="58" as="geometry">
            <mxRectangle x="690" y="870" width="160" height="50" as="alternateBounds" />
          </mxGeometry>
        </mxCell>
        <mxCell id="h68TDxjQolyVrIVYv69o-127" value="" style="line;strokeWidth=1;fillColor=none;align=left;verticalAlign=middle;spacingTop=-1;spacingLeft=3;spacingRight=3;rotatable=0;labelPosition=right;points=[];portConstraint=eastwest;strokeColor=inherit;" vertex="1" parent="h68TDxjQolyVrIVYv69o-126">
          <mxGeometry y="50" width="220" height="8" as="geometry" />
        </mxCell>
        <mxCell id="h68TDxjQolyVrIVYv69o-187" style="edgeStyle=orthogonalEdgeStyle;rounded=0;orthogonalLoop=1;jettySize=auto;html=1;endArrow=diamond;endFill=1;endSize=13;" edge="1" parent="WIyWlLk6GJQsqaUBKTNV-1" source="h68TDxjQolyVrIVYv69o-128" target="h68TDxjQolyVrIVYv69o-181">
          <mxGeometry relative="1" as="geometry" />
        </mxCell>
        <mxCell id="h68TDxjQolyVrIVYv69o-128" value="RigidBody&lt;br&gt;&amp;lt;&amp;lt;Component&amp;gt;&amp;gt;" style="swimlane;fontStyle=1;align=center;verticalAlign=top;childLayout=stackLayout;horizontal=1;startSize=50;horizontalStack=0;resizeParent=1;resizeParentMax=0;resizeLast=0;collapsible=1;marginBottom=0;whiteSpace=wrap;html=1;fontSize=15;fillColor=#dae8fc;strokeColor=#6c8ebf;" vertex="1" parent="WIyWlLk6GJQsqaUBKTNV-1">
          <mxGeometry x="-770" y="-2492" width="220" height="58" as="geometry">
            <mxRectangle x="640" y="-200" width="160" height="50" as="alternateBounds" />
          </mxGeometry>
        </mxCell>
        <mxCell id="h68TDxjQolyVrIVYv69o-129" value="" style="line;strokeWidth=1;fillColor=none;align=left;verticalAlign=middle;spacingTop=-1;spacingLeft=3;spacingRight=3;rotatable=0;labelPosition=right;points=[];portConstraint=eastwest;strokeColor=inherit;" vertex="1" parent="h68TDxjQolyVrIVYv69o-128">
          <mxGeometry y="50" width="220" height="8" as="geometry" />
        </mxCell>
        <mxCell id="h68TDxjQolyVrIVYv69o-386" style="edgeStyle=orthogonalEdgeStyle;rounded=0;orthogonalLoop=1;jettySize=auto;html=1;" edge="1" parent="WIyWlLk6GJQsqaUBKTNV-1" source="h68TDxjQolyVrIVYv69o-166" target="h68TDxjQolyVrIVYv69o-181">
          <mxGeometry relative="1" as="geometry">
            <Array as="points">
              <mxPoint x="-510" y="-2371" />
              <mxPoint x="-510" y="-2463" />
            </Array>
          </mxGeometry>
        </mxCell>
        <mxCell id="h68TDxjQolyVrIVYv69o-166" value="AudioSource&lt;br style=&quot;font-size: 15px;&quot;&gt;&amp;lt;&amp;lt;Component&amp;gt;&amp;gt;" style="swimlane;fontStyle=1;align=center;verticalAlign=top;childLayout=stackLayout;horizontal=1;startSize=50;horizontalStack=0;resizeParent=1;resizeParentMax=0;resizeLast=0;collapsible=1;marginBottom=0;whiteSpace=wrap;html=1;fontSize=15;fillColor=#dae8fc;strokeColor=#6c8ebf;" vertex="1" parent="WIyWlLk6GJQsqaUBKTNV-1">
          <mxGeometry x="-770" y="-2400" width="220" height="58" as="geometry">
            <mxRectangle x="690" y="870" width="160" height="50" as="alternateBounds" />
          </mxGeometry>
        </mxCell>
        <mxCell id="h68TDxjQolyVrIVYv69o-167" value="" style="line;strokeWidth=1;fillColor=none;align=left;verticalAlign=middle;spacingTop=-1;spacingLeft=3;spacingRight=3;rotatable=0;labelPosition=right;points=[];portConstraint=eastwest;strokeColor=inherit;" vertex="1" parent="h68TDxjQolyVrIVYv69o-166">
          <mxGeometry y="50" width="220" height="8" as="geometry" />
        </mxCell>
        <mxCell id="h68TDxjQolyVrIVYv69o-185" style="edgeStyle=orthogonalEdgeStyle;rounded=0;orthogonalLoop=1;jettySize=auto;html=1;endArrow=none;endFill=0;" edge="1" parent="WIyWlLk6GJQsqaUBKTNV-1" source="h68TDxjQolyVrIVYv69o-181" target="h68TDxjQolyVrIVYv69o-5">
          <mxGeometry relative="1" as="geometry">
            <Array as="points">
              <mxPoint x="-160" y="-2490" />
              <mxPoint x="-160" y="-2490" />
            </Array>
          </mxGeometry>
        </mxCell>
        <mxCell id="h68TDxjQolyVrIVYv69o-186" value="&lt;font style=&quot;font-size: 17px;&quot;&gt;Use&lt;/font&gt;" style="edgeLabel;html=1;align=center;verticalAlign=middle;resizable=0;points=[];" vertex="1" connectable="0" parent="h68TDxjQolyVrIVYv69o-185">
          <mxGeometry x="0.1657" y="-1" relative="1" as="geometry">
            <mxPoint x="-8" as="offset" />
          </mxGeometry>
        </mxCell>
        <mxCell id="h68TDxjQolyVrIVYv69o-181" value="Weapon&lt;br style=&quot;font-size: 15px;&quot;&gt;&amp;lt;&amp;lt;GameObject&amp;gt;&amp;gt;" style="swimlane;fontStyle=1;align=center;verticalAlign=middle;childLayout=stackLayout;horizontal=1;startSize=50;horizontalStack=0;resizeParent=1;resizeParentMax=0;resizeLast=0;collapsible=1;marginBottom=0;whiteSpace=wrap;html=1;fontSize=15;fillColor=#d5e8d4;strokeColor=#82b366;" vertex="1" parent="WIyWlLk6GJQsqaUBKTNV-1">
          <mxGeometry x="-450" y="-2518" width="220" height="110" as="geometry">
            <mxRectangle x="975" y="457" width="160" height="50" as="alternateBounds" />
          </mxGeometry>
        </mxCell>
        <mxCell id="h68TDxjQolyVrIVYv69o-182" value="- tag: string" style="text;strokeColor=none;fillColor=none;align=left;verticalAlign=top;spacingLeft=4;spacingRight=4;overflow=hidden;rotatable=0;points=[[0,0.5],[1,0.5]];portConstraint=eastwest;whiteSpace=wrap;html=1;fontSize=15;" vertex="1" parent="h68TDxjQolyVrIVYv69o-181">
          <mxGeometry y="50" width="220" height="26" as="geometry" />
        </mxCell>
        <mxCell id="h68TDxjQolyVrIVYv69o-183" value="- active: bool" style="text;strokeColor=none;fillColor=none;align=left;verticalAlign=top;spacingLeft=4;spacingRight=4;overflow=hidden;rotatable=0;points=[[0,0.5],[1,0.5]];portConstraint=eastwest;whiteSpace=wrap;html=1;fontSize=15;" vertex="1" parent="h68TDxjQolyVrIVYv69o-181">
          <mxGeometry y="76" width="220" height="26" as="geometry" />
        </mxCell>
        <mxCell id="h68TDxjQolyVrIVYv69o-184" value="" style="line;strokeWidth=1;fillColor=none;align=left;verticalAlign=middle;spacingTop=-1;spacingLeft=3;spacingRight=3;rotatable=0;labelPosition=right;points=[];portConstraint=eastwest;strokeColor=inherit;" vertex="1" parent="h68TDxjQolyVrIVYv69o-181">
          <mxGeometry y="102" width="220" height="8" as="geometry" />
        </mxCell>
        <mxCell id="h68TDxjQolyVrIVYv69o-385" style="edgeStyle=orthogonalEdgeStyle;rounded=0;orthogonalLoop=1;jettySize=auto;html=1;endArrow=diamond;endFill=1;endSize=12;" edge="1" parent="WIyWlLk6GJQsqaUBKTNV-1" source="h68TDxjQolyVrIVYv69o-188" target="h68TDxjQolyVrIVYv69o-181">
          <mxGeometry relative="1" as="geometry" />
        </mxCell>
        <mxCell id="h68TDxjQolyVrIVYv69o-188" value="Launcher&lt;br style=&quot;font-size: 15px;&quot;&gt;&amp;lt;&amp;lt;MonoBehaviour&amp;gt;&amp;gt;Script" style="swimlane;fontStyle=1;align=center;verticalAlign=top;childLayout=stackLayout;horizontal=1;startSize=50;horizontalStack=0;resizeParent=1;resizeParentMax=0;resizeLast=0;collapsible=1;marginBottom=0;whiteSpace=wrap;html=1;fontSize=15;fillColor=#fff2cc;strokeColor=#d6b656;" vertex="1" parent="WIyWlLk6GJQsqaUBKTNV-1">
          <mxGeometry x="-480" y="-2310" width="280" height="264" as="geometry">
            <mxRectangle x="1095" y="-1662" width="320" height="50" as="alternateBounds" />
          </mxGeometry>
        </mxCell>
        <mxCell id="h68TDxjQolyVrIVYv69o-189" value="+ damage: float" style="text;strokeColor=none;fillColor=none;align=left;verticalAlign=top;spacingLeft=4;spacingRight=4;overflow=hidden;rotatable=0;points=[[0,0.5],[1,0.5]];portConstraint=eastwest;whiteSpace=wrap;html=1;fontSize=15;" vertex="1" parent="h68TDxjQolyVrIVYv69o-188">
          <mxGeometry y="50" width="280" height="30" as="geometry" />
        </mxCell>
        <mxCell id="h68TDxjQolyVrIVYv69o-190" value="+ range: float" style="text;strokeColor=none;fillColor=none;align=left;verticalAlign=top;spacingLeft=4;spacingRight=4;overflow=hidden;rotatable=0;points=[[0,0.5],[1,0.5]];portConstraint=eastwest;whiteSpace=wrap;html=1;fontSize=15;" vertex="1" parent="h68TDxjQolyVrIVYv69o-188">
          <mxGeometry y="80" width="280" height="30" as="geometry" />
        </mxCell>
        <mxCell id="h68TDxjQolyVrIVYv69o-191" value="+ target: EnemyHealth" style="text;strokeColor=none;fillColor=none;align=left;verticalAlign=top;spacingLeft=4;spacingRight=4;overflow=hidden;rotatable=0;points=[[0,0.5],[1,0.5]];portConstraint=eastwest;whiteSpace=wrap;html=1;fontSize=15;" vertex="1" parent="h68TDxjQolyVrIVYv69o-188">
          <mxGeometry y="110" width="280" height="30" as="geometry" />
        </mxCell>
        <mxCell id="h68TDxjQolyVrIVYv69o-192" value="+ valocity: float" style="text;strokeColor=none;fillColor=none;align=left;verticalAlign=top;spacingLeft=4;spacingRight=4;overflow=hidden;rotatable=0;points=[[0,0.5],[1,0.5]];portConstraint=eastwest;whiteSpace=wrap;html=1;fontSize=15;" vertex="1" parent="h68TDxjQolyVrIVYv69o-188">
          <mxGeometry y="140" width="280" height="30" as="geometry" />
        </mxCell>
        <mxCell id="h68TDxjQolyVrIVYv69o-193" value="+ targetSet: bool" style="text;strokeColor=none;fillColor=none;align=left;verticalAlign=top;spacingLeft=4;spacingRight=4;overflow=hidden;rotatable=0;points=[[0,0.5],[1,0.5]];portConstraint=eastwest;whiteSpace=wrap;html=1;fontSize=15;" vertex="1" parent="h68TDxjQolyVrIVYv69o-188">
          <mxGeometry y="170" width="280" height="30" as="geometry" />
        </mxCell>
        <mxCell id="h68TDxjQolyVrIVYv69o-205" value="+ audio: AudioSource" style="text;strokeColor=none;fillColor=none;align=left;verticalAlign=top;spacingLeft=4;spacingRight=4;overflow=hidden;rotatable=0;points=[[0,0.5],[1,0.5]];portConstraint=eastwest;whiteSpace=wrap;html=1;fontSize=15;" vertex="1" parent="h68TDxjQolyVrIVYv69o-188">
          <mxGeometry y="200" width="280" height="30" as="geometry" />
        </mxCell>
        <mxCell id="h68TDxjQolyVrIVYv69o-196" value="" style="line;strokeWidth=1;fillColor=none;align=left;verticalAlign=middle;spacingTop=-1;spacingLeft=3;spacingRight=3;rotatable=0;labelPosition=right;points=[];portConstraint=eastwest;strokeColor=inherit;" vertex="1" parent="h68TDxjQolyVrIVYv69o-188">
          <mxGeometry y="230" width="280" height="8" as="geometry" />
        </mxCell>
        <mxCell id="h68TDxjQolyVrIVYv69o-197" value="- Update()" style="text;strokeColor=none;fillColor=none;align=left;verticalAlign=top;spacingLeft=4;spacingRight=4;overflow=hidden;rotatable=0;points=[[0,0.5],[1,0.5]];portConstraint=eastwest;whiteSpace=wrap;html=1;fontSize=15;" vertex="1" parent="h68TDxjQolyVrIVYv69o-188">
          <mxGeometry y="238" width="280" height="26" as="geometry" />
        </mxCell>
        <mxCell id="h68TDxjQolyVrIVYv69o-394" value="1..*" style="text;html=1;align=center;verticalAlign=middle;resizable=0;points=[];autosize=1;strokeColor=none;fillColor=none;fontSize=11;" vertex="1" parent="WIyWlLk6GJQsqaUBKTNV-1">
          <mxGeometry x="50" y="-2480" width="40" height="30" as="geometry" />
        </mxCell>
        <mxCell id="h68TDxjQolyVrIVYv69o-395" value="1..*" style="text;html=1;align=center;verticalAlign=middle;resizable=0;points=[];autosize=1;strokeColor=none;fillColor=none;fontSize=11;" vertex="1" parent="WIyWlLk6GJQsqaUBKTNV-1">
          <mxGeometry x="50" y="-2360" width="40" height="30" as="geometry" />
        </mxCell>
        <mxCell id="h68TDxjQolyVrIVYv69o-396" value="1" style="text;html=1;align=center;verticalAlign=middle;resizable=0;points=[];autosize=1;strokeColor=none;fillColor=none;fontSize=11;" vertex="1" parent="WIyWlLk6GJQsqaUBKTNV-1">
          <mxGeometry x="-71" y="-2515" width="30" height="30" as="geometry" />
        </mxCell>
        <mxCell id="h68TDxjQolyVrIVYv69o-397" value="1" style="text;html=1;align=center;verticalAlign=middle;resizable=0;points=[];autosize=1;strokeColor=none;fillColor=none;fontSize=11;" vertex="1" parent="WIyWlLk6GJQsqaUBKTNV-1">
          <mxGeometry x="-236" y="-2513" width="30" height="30" as="geometry" />
        </mxCell>
        <mxCell id="h68TDxjQolyVrIVYv69o-410" style="edgeStyle=orthogonalEdgeStyle;rounded=0;orthogonalLoop=1;jettySize=auto;html=1;" edge="1" parent="WIyWlLk6GJQsqaUBKTNV-1" source="h68TDxjQolyVrIVYv69o-405" target="JzHmCHcc4jUydCR1_Gb7-108">
          <mxGeometry relative="1" as="geometry" />
        </mxCell>
        <mxCell id="h68TDxjQolyVrIVYv69o-405" value="Transform&lt;br style=&quot;font-size: 15px;&quot;&gt;&amp;lt;&amp;lt;Component&amp;gt;&amp;gt;" style="swimlane;fontStyle=1;align=center;verticalAlign=top;childLayout=stackLayout;horizontal=1;startSize=50;horizontalStack=0;resizeParent=1;resizeParentMax=0;resizeLast=0;collapsible=1;marginBottom=0;whiteSpace=wrap;html=1;fontSize=15;fillColor=#dae8fc;strokeColor=#6c8ebf;" vertex="1" parent="WIyWlLk6GJQsqaUBKTNV-1">
          <mxGeometry x="1790" y="-403" width="160" height="58" as="geometry">
            <mxRectangle x="690" y="870" width="160" height="50" as="alternateBounds" />
          </mxGeometry>
        </mxCell>
        <mxCell id="h68TDxjQolyVrIVYv69o-406" value="" style="line;strokeWidth=1;fillColor=none;align=left;verticalAlign=middle;spacingTop=-1;spacingLeft=3;spacingRight=3;rotatable=0;labelPosition=right;points=[];portConstraint=eastwest;strokeColor=inherit;" vertex="1" parent="h68TDxjQolyVrIVYv69o-405">
          <mxGeometry y="50" width="160" height="8" as="geometry" />
        </mxCell>
        <mxCell id="h68TDxjQolyVrIVYv69o-409" style="edgeStyle=orthogonalEdgeStyle;rounded=0;orthogonalLoop=1;jettySize=auto;html=1;endArrow=diamond;endFill=1;endSize=12;" edge="1" parent="WIyWlLk6GJQsqaUBKTNV-1" source="h68TDxjQolyVrIVYv69o-407" target="JzHmCHcc4jUydCR1_Gb7-108">
          <mxGeometry relative="1" as="geometry">
            <Array as="points">
              <mxPoint x="2000" y="-281" />
              <mxPoint x="2000" y="-416" />
            </Array>
          </mxGeometry>
        </mxCell>
        <mxCell id="h68TDxjQolyVrIVYv69o-407" value="CharacterController&lt;br style=&quot;font-size: 15px;&quot;&gt;&amp;lt;&amp;lt;Component&amp;gt;&amp;gt;" style="swimlane;fontStyle=1;align=center;verticalAlign=top;childLayout=stackLayout;horizontal=1;startSize=50;horizontalStack=0;resizeParent=1;resizeParentMax=0;resizeLast=0;collapsible=1;marginBottom=0;whiteSpace=wrap;html=1;fontSize=15;fillColor=#dae8fc;strokeColor=#6c8ebf;" vertex="1" parent="WIyWlLk6GJQsqaUBKTNV-1">
          <mxGeometry x="1780" y="-310" width="180" height="58" as="geometry">
            <mxRectangle x="690" y="870" width="160" height="50" as="alternateBounds" />
          </mxGeometry>
        </mxCell>
        <mxCell id="h68TDxjQolyVrIVYv69o-408" value="" style="line;strokeWidth=1;fillColor=none;align=left;verticalAlign=middle;spacingTop=-1;spacingLeft=3;spacingRight=3;rotatable=0;labelPosition=right;points=[];portConstraint=eastwest;strokeColor=inherit;" vertex="1" parent="h68TDxjQolyVrIVYv69o-407">
          <mxGeometry y="50" width="180" height="8" as="geometry" />
        </mxCell>
        <mxCell id="h68TDxjQolyVrIVYv69o-415" style="edgeStyle=orthogonalEdgeStyle;rounded=0;orthogonalLoop=1;jettySize=auto;html=1;endArrow=diamond;endFill=1;endSize=12;" edge="1" parent="WIyWlLk6GJQsqaUBKTNV-1" source="h68TDxjQolyVrIVYv69o-412" target="JzHmCHcc4jUydCR1_Gb7-108">
          <mxGeometry relative="1" as="geometry" />
        </mxCell>
        <mxCell id="h68TDxjQolyVrIVYv69o-412" value="PhotonView&lt;br&gt;&amp;lt;&amp;lt;MonoBehaviour&amp;gt;&amp;gt;Script" style="swimlane;fontStyle=1;align=center;verticalAlign=top;childLayout=stackLayout;horizontal=1;startSize=50;horizontalStack=0;resizeParent=1;resizeParentMax=0;resizeLast=0;collapsible=1;marginBottom=0;whiteSpace=wrap;html=1;fontSize=15;fillColor=#f5f5f5;strokeColor=#666666;fontColor=#333333;" vertex="1" parent="WIyWlLk6GJQsqaUBKTNV-1">
          <mxGeometry x="2050" y="-630" width="220" height="58" as="geometry">
            <mxRectangle x="530" y="-137" width="160" height="50" as="alternateBounds" />
          </mxGeometry>
        </mxCell>
        <mxCell id="h68TDxjQolyVrIVYv69o-413" value="" style="line;strokeWidth=1;fillColor=none;align=left;verticalAlign=middle;spacingTop=-1;spacingLeft=3;spacingRight=3;rotatable=0;labelPosition=right;points=[];portConstraint=eastwest;strokeColor=inherit;" vertex="1" parent="h68TDxjQolyVrIVYv69o-412">
          <mxGeometry y="50" width="220" height="8" as="geometry" />
        </mxCell>
        <mxCell id="h68TDxjQolyVrIVYv69o-421" style="edgeStyle=orthogonalEdgeStyle;rounded=0;orthogonalLoop=1;jettySize=auto;html=1;endArrow=none;endFill=0;" edge="1" parent="WIyWlLk6GJQsqaUBKTNV-1" source="h68TDxjQolyVrIVYv69o-419" target="JzHmCHcc4jUydCR1_Gb7-33">
          <mxGeometry relative="1" as="geometry" />
        </mxCell>
        <mxCell id="h68TDxjQolyVrIVYv69o-424" value="&lt;font style=&quot;font-size: 17px;&quot;&gt;Attack&lt;/font&gt;" style="edgeLabel;html=1;align=center;verticalAlign=middle;resizable=0;points=[];" vertex="1" connectable="0" parent="h68TDxjQolyVrIVYv69o-421">
          <mxGeometry x="0.1817" relative="1" as="geometry">
            <mxPoint y="-9" as="offset" />
          </mxGeometry>
        </mxCell>
        <mxCell id="h68TDxjQolyVrIVYv69o-419" value="Enemy" style="swimlane;fontStyle=1;align=center;verticalAlign=middle;childLayout=stackLayout;horizontal=1;startSize=36;horizontalStack=0;resizeParent=1;resizeParentMax=0;resizeLast=0;collapsible=1;marginBottom=0;whiteSpace=wrap;html=1;fontSize=15;fillColor=#f5f5f5;strokeColor=#666666;fontColor=#333333;" vertex="1" parent="WIyWlLk6GJQsqaUBKTNV-1">
          <mxGeometry x="480" y="-464" width="220" height="44" as="geometry">
            <mxRectangle x="800" y="12" width="160" height="50" as="alternateBounds" />
          </mxGeometry>
        </mxCell>
        <mxCell id="h68TDxjQolyVrIVYv69o-420" value="" style="line;strokeWidth=1;fillColor=none;align=left;verticalAlign=middle;spacingTop=-1;spacingLeft=3;spacingRight=3;rotatable=0;labelPosition=right;points=[];portConstraint=eastwest;strokeColor=inherit;" vertex="1" parent="h68TDxjQolyVrIVYv69o-419">
          <mxGeometry y="36" width="220" height="8" as="geometry" />
        </mxCell>
        <mxCell id="h68TDxjQolyVrIVYv69o-422" value="1..*" style="text;html=1;align=center;verticalAlign=middle;resizable=0;points=[];autosize=1;strokeColor=none;fillColor=none;fontSize=14;" vertex="1" parent="WIyWlLk6GJQsqaUBKTNV-1">
          <mxGeometry x="582" y="-424" width="40" height="30" as="geometry" />
        </mxCell>
        <mxCell id="h68TDxjQolyVrIVYv69o-423" value="1..*" style="text;html=1;align=center;verticalAlign=middle;resizable=0;points=[];autosize=1;strokeColor=none;fillColor=none;fontSize=14;" vertex="1" parent="WIyWlLk6GJQsqaUBKTNV-1">
          <mxGeometry x="582" y="-351" width="40" height="30" as="geometry" />
        </mxCell>
        <mxCell id="h68TDxjQolyVrIVYv69o-425" style="edgeStyle=orthogonalEdgeStyle;rounded=0;orthogonalLoop=1;jettySize=auto;html=1;endArrow=diamond;endFill=0;endSize=12;" edge="1" parent="WIyWlLk6GJQsqaUBKTNV-1" source="h68TDxjQolyVrIVYv69o-420" target="JzHmCHcc4jUydCR1_Gb7-77">
          <mxGeometry relative="1" as="geometry">
            <Array as="points">
              <mxPoint x="970" y="-424" />
              <mxPoint x="970" y="-10" />
            </Array>
          </mxGeometry>
        </mxCell>
        <mxCell id="h68TDxjQolyVrIVYv69o-426" value="1" style="text;html=1;align=center;verticalAlign=middle;resizable=0;points=[];autosize=1;strokeColor=none;fillColor=none;" vertex="1" parent="WIyWlLk6GJQsqaUBKTNV-1">
          <mxGeometry x="753" y="-77" width="30" height="30" as="geometry" />
        </mxCell>
        <mxCell id="h68TDxjQolyVrIVYv69o-427" value="1" style="text;html=1;align=center;verticalAlign=middle;resizable=0;points=[];autosize=1;strokeColor=none;fillColor=none;" vertex="1" parent="WIyWlLk6GJQsqaUBKTNV-1">
          <mxGeometry x="584" y="-287" width="30" height="30" as="geometry" />
        </mxCell>
        <mxCell id="h68TDxjQolyVrIVYv69o-431" value="1..*" style="text;html=1;align=center;verticalAlign=middle;resizable=0;points=[];autosize=1;strokeColor=none;fillColor=none;" vertex="1" parent="WIyWlLk6GJQsqaUBKTNV-1">
          <mxGeometry x="10" y="-292" width="40" height="30" as="geometry" />
        </mxCell>
        <mxCell id="h68TDxjQolyVrIVYv69o-432" value="1..*" style="text;html=1;align=center;verticalAlign=middle;resizable=0;points=[];autosize=1;strokeColor=none;fillColor=none;" vertex="1" parent="WIyWlLk6GJQsqaUBKTNV-1">
          <mxGeometry x="87" y="-291" width="40" height="30" as="geometry" />
        </mxCell>
        <mxCell id="h68TDxjQolyVrIVYv69o-433" value="1..*" style="text;html=1;align=center;verticalAlign=middle;resizable=0;points=[];autosize=1;strokeColor=none;fillColor=none;" vertex="1" parent="WIyWlLk6GJQsqaUBKTNV-1">
          <mxGeometry x="-100" y="-245" width="40" height="30" as="geometry" />
        </mxCell>
        <mxCell id="h68TDxjQolyVrIVYv69o-434" value="1" style="text;html=1;align=center;verticalAlign=middle;resizable=0;points=[];autosize=1;strokeColor=none;fillColor=none;" vertex="1" parent="WIyWlLk6GJQsqaUBKTNV-1">
          <mxGeometry x="-95" y="-156" width="30" height="30" as="geometry" />
        </mxCell>
      </root>
    </mxGraphModel>
  </diagram>
</mxfile>
